<svg id="Capa_1" data-name="Capa 1" xmlns="http://www.w3.org/2000/svg" xmlns:xlink="http://www.w3.org/1999/xlink" viewBox="0 0 455 1483"><defs><style>.cls-1,.cls-17{fill:none;}.cls-2{clip-path:url(#clip-path);}.cls-3{opacity:0.05;}.cls-4{fill:#0f6343;}.cls-5{fill:#f8eac3;}.cls-10,.cls-11,.cls-12,.cls-13,.cls-14,.cls-15,.cls-17,.cls-19,.cls-20,.cls-23,.cls-24,.cls-5,.cls-6,.cls-7,.cls-8{stroke:#1d1e1c;}.cls-10,.cls-11,.cls-12,.cls-13,.cls-14,.cls-15,.cls-17,.cls-18,.cls-19,.cls-20,.cls-23,.cls-24,.cls-25,.cls-5,.cls-6,.cls-7,.cls-8{stroke-miterlimit:10;}.cls-10,.cls-11,.cls-12,.cls-13,.cls-14,.cls-15,.cls-17,.cls-18,.cls-19,.cls-20,.cls-23,.cls-24,.cls-5,.cls-6,.cls-7,.cls-8{stroke-width:2px;}.cls-6{fill:#57a293;}.cls-22,.cls-7{fill:#fff;}.cls-8{fill:#f199b4;}.cls-9{fill:#1d1e1c;}.cls-10{fill:#f2b91a;}.cls-11{fill:#3a407f;}.cls-12{fill:#d2a97d;}.cls-13,.cls-16{fill:#b696c4;}.cls-14{fill:#485aa4;}.cls-15{fill:#f7dac6;}.cls-18,.cls-25{fill:#44b28b;}.cls-18{stroke:#1d1d1b;}.cls-19{fill:#00b2d4;}.cls-20,.cls-21{fill:#6eaadc;}.cls-23{fill:#c5d983;}.cls-24{fill:#e73c37;}.cls-25{stroke:#44b28b;stroke-width:0.5px;}</style><clipPath id="clip-path"><rect class="cls-1" y="3" width="455" height="1480"/></clipPath></defs><g class="cls-2"><g class="cls-3"><circle class="cls-4" cx="11.12" cy="1287.72" r="93"/><rect class="cls-4" x="98.19" y="1338.25" width="200.71" height="204.2" transform="translate(948.85 194.93) rotate(38.92)"/></g><g class="cls-3"><circle class="cls-4" cx="137.94" cy="995.66" r="93"/><circle class="cls-4" cx="385.37" cy="946.79" r="93"/><circle class="cls-4" cx="133.83" cy="535.46" r="93"/><rect class="cls-4" x="254.13" y="590.51" width="200.71" height="204.2" transform="translate(397.04 -84.28) rotate(30.24)"/><polygon class="cls-4" points="0.42 830.34 6.79 737.42 13.16 644.51 90.44 696.48 167.72 748.46 84.07 789.4 0.42 830.34"/><polygon class="cls-4" points="301.82 1231.14 308.19 1138.23 314.56 1045.31 391.84 1097.29 469.12 1149.26 385.47 1190.2 301.82 1231.14"/></g><g class="cls-3"><circle class="cls-4" cx="125.94" cy="278.66" r="93"/><circle class="cls-4" cx="373.37" cy="229.79" r="93"/><rect class="cls-4" x="242.13" y="-126.49" width="200.71" height="204.2" transform="translate(34.32 -175.8) rotate(30.24)"/><polygon class="cls-4" points="-11.58 113.34 -5.21 20.43 1.16 -72.49 78.44 -20.52 155.72 31.45 72.07 72.4 -11.58 113.34"/><polygon class="cls-4" points="289.82 514.14 296.19 421.23 302.56 328.31 379.84 380.29 457.12 432.26 373.47 473.2 289.82 514.14"/></g><ellipse class="cls-5" cx="183.78" cy="1004.47" rx="8.97" ry="13.02" transform="translate(-792.34 704.59) rotate(-62.55)"/><path class="cls-6" d="M279.47,1068.86,265.66,1176l-40.57-2.55,22-120.7,47.89-.26,35.38,94.93-33.23,20.93s-18.55-39.3-21.14-46.45l-2.59-7.14"/><polygon class="cls-7" points="336.56 1165.84 325.34 1151.04 307.65 1162.27 302.47 1196.97 336.56 1165.84"/><polygon class="cls-7" points="260.48 1175.03 259.62 1198 216.46 1197.49 238.04 1174.01 260.48 1175.03"/><path class="cls-8" d="M279.81,1005.23s3.8-4.58-10.64,11.44a44.13,44.13,0,0,1-19.86,12.71c-.82.27-1.65.51-2.47.73-8.78,2.37-17.54,2.54-24.8,3.35-13.68,1.53-38-16-38-16l9.88-19.08s3,.77,23.57,6.11,19-.77,36.48-24.42,32.69-13.73,32.69-13.73,9.88,33.06,8.36,78.07v8.14l-47.89-.76s.51-21.62.25-20.6"/><ellipse class="cls-5" cx="276.51" cy="947.5" rx="20.52" ry="20.6"/><ellipse class="cls-9" cx="282.86" cy="942.82" rx="12.69" ry="17.78" transform="translate(-507.57 356.18) rotate(-36.72)"/><ellipse class="cls-10" cx="151.32" cy="960.12" rx="42.03" ry="42.19"/><rect class="cls-11" x="61.48" y="736.21" width="57.63" height="113.34"/><polygon class="cls-7" points="62.44 875 119.11 875 94.14 850.99 63.4 850.03 62.44 875"/><ellipse class="cls-12" cx="159.45" cy="672.81" rx="15.37" ry="10.57" transform="translate(-493.78 446.12) rotate(-57.53)"/><path class="cls-13" d="M77.08,715.07S101,741,127.69,744.85,170,686.26,170,686.26l-27.61-14.41-19.32,19.21L97.33,661.29s-37.73,0-36.81,40.34,1.8,41.42,1.8,41.42l57.73-.48"/><circle class="cls-12" cx="81.17" cy="644.48" r="23.05"/><circle class="cls-9" cx="57.64" cy="628.63" r="14.41"/><ellipse class="cls-9" cx="70.6" cy="637.27" rx="16.81" ry="12.01" transform="translate(-480.66 309.84) rotate(-52.97)"/><polygon class="cls-14" points="220.16 657.85 173.28 658.43 126.41 659.01 149.35 618.13 172.28 577.25 196.22 617.55 220.16 657.85"/><path class="cls-15" d="M289.46,91.11l-17.85-8s-64.28-10.52-67.26-11.22c-15.13-3.57-28.55,8.85-5.8,18.65s68.27,17.64,74.17,16.71S288.58,100.21,289.46,91.11Z"/><path class="cls-15" d="M259.67,68.38S219.61,56,212.14,60.22c-3.95,2.25-7.79,9.87-.45,11.9S264.55,82,264.55,82l7.36-5.32Z"/><ellipse class="cls-15" cx="276.39" cy="63.96" rx="19.09" ry="19.59" transform="translate(-6.28 88.07) rotate(-17.9)"/><path class="cls-16" d="M274.82,144.84l15.25,110.73,41.36-10.91-9.26-55.58-.16-.18L315.17,147l7,42.08,4.44,5.18c4.6,5.38,34.24,33.55,34.24,33.55l27.42-29-62-67.7Z"/><path class="cls-16" d="M315.17,147,322,188.9l.16.18Z"/><path class="cls-17" d="M322.17,189.08l-.16-.18"/><path class="cls-17" d="M322.17,189.08l9.26,55.58-41.36,10.91L274.82,144.84l51.46-13.69,62,67.7-27.42,29s-29.64-28.17-34.24-33.55Z"/><line class="cls-17" x1="315.17" y1="147" x2="322.17" y2="189.08"/><polygon class="cls-7" points="400.46 211.82 385.06 202.59 370.48 218.08 375.04 249.93 400.46 211.82"/><polygon class="cls-7" points="327.36 245.36 331.54 265.7 288.16 279.23 303.18 251.83 327.36 245.36"/><path class="cls-11" d="M330.31,131.81S313,74.58,283.75,81.56s-11.34,66.88-11.34,66.88Z"/><polygon class="cls-18" points="218.94 180.92 169.76 181.53 120.59 182.14 144.65 139.25 168.71 96.36 193.82 138.64 218.94 180.92"/><ellipse class="cls-19" cx="289.14" cy="343.8" rx="63.19" ry="60.41"/><ellipse class="cls-9" cx="281.61" cy="59.78" rx="12.53" ry="17.38" transform="translate(17.65 174.7) rotate(-35.51)"/><circle class="cls-9" cx="295.56" cy="45.08" r="14.08"/><ellipse class="cls-12" cx="179.23" cy="260.4" rx="12.99" ry="8.68" transform="translate(-91.76 97.63) rotate(-24.47)"/><path class="cls-20" d="M82.55,261.13s-3.83-4.39,10.71,11a44.81,44.81,0,0,0,20,12.18c.83.26,1.66.49,2.49.7,8.84,2.28,17.66,2.44,25,3.21,13.78,1.47,38.27-15.36,38.27-15.36L169,254.55s-3.06.73-23.73,5.85-19.13-.73-36.73-23.41-32.91-13.17-32.91-13.17-10,31.7-8.41,74.87v7.8l48.21-.73S115,285,115.2,286"/><ellipse class="cls-12" cx="85.87" cy="205.78" rx="20.66" ry="19.75"/><ellipse class="cls-9" cx="79.48" cy="201.29" rx="17.38" ry="12.53" transform="translate(-124.61 129.3) rotate(-49.03)"/><rect class="cls-11" x="68.52" y="306.39" width="44.94" height="110.74"/><polygon class="cls-7" points="69.36 442 119.17 442 97.22 418.54 70.21 417.6 69.36 442"/><path class="cls-15" d="M331.61,590.43l-15.63-14s-62.3-32-65.12-33.72c-14.3-8.65-32.13-.38-12.1,17.17s64,40.62,70.37,41.63S327.7,599.46,331.61,590.43Z"/><path class="cls-15" d="M308.65,557.34s-36.9-26-45.94-24.07c-4.79,1-11.24,7.52-4.4,12s50.82,27.58,50.82,27.58l9.29-3Z"/><ellipse class="cls-15" cx="327.22" cy="558.34" rx="20.52" ry="21.06"/><path class="cls-9" d="M331.3,537.92c7.44-2.23,15.81,4.15,18.69,14.25a25.56,25.56,0,0,1,.86,4.71c.26,0,.53,0,.8,0a18.7,18.7,0,0,1,18.28,15.78,24.53,24.53,0,0,1,3.22-.24c13.5,0,24.44,11.23,24.44,25.08s-10.94,25.07-24.44,25.07-24.43-11.23-24.43-25.07a24.93,24.93,0,0,1,.15-2.75,18.9,18.9,0,0,1-15.79-18.82,19.12,19.12,0,0,1,.15-2.28c-4.51-2.23-8.43-7.07-10.22-13.36C320.14,550.15,323.85,540.15,331.3,537.92Z"/><path class="cls-21" d="M298.87,640.58l-21,118.35,45.93,2.51,8.9-59.93-.1-.24,6.85-45.14-6.75,45.38c.21.49.85,2,2.83,6.77,2.93,7,23.94,45.64,23.94,45.64l37.64-20.56-41.05-89.77Z"/><path class="cls-22" d="M339.44,656.13l-6.85,45.14.1.24Z"/><path class="cls-17" d="M332.69,701.51l-.1-.24"/><path class="cls-17" d="M332.69,701.51l-8.9,59.93-45.93-2.51,21-118.35,57.18,3,41.05,89.77-37.64,20.56s-21-38.62-23.94-45.64C333.54,703.54,332.9,702,332.69,701.51Z"/><line class="cls-17" x1="339.44" y1="656.13" x2="332.69" y2="701.51"/><polygon class="cls-7" points="405.28 750.65 392.58 736.11 372.54 747.14 366.68 781.25 405.28 750.65"/><polygon class="cls-7" points="319.4 760.81 316.95 783 268.08 782.5 292.52 759.43 319.4 760.81"/><path class="cls-23" d="M360,645.6s1.22-64.29-31-66.82-33.72,64.69-33.72,64.69Z"/><rect class="cls-24" x="213.56" y="449.65" width="75.54" height="75.54" transform="translate(-277.98 343.98) rotate(-47.56)"/><path class="cls-25" d="M52.89,1308.55H31V1272h8.36v29.25H52.89Z"/><path class="cls-25" d="M62.61,1308.55H53.87L66.08,1272H76.61l12.21,36.57h-9l-2.22-7.49H64.83ZM67.22,1293l-.38,1.31h8.79l-.38-1.31q-1.57-5.31-2.58-9.06c-.67-2.5-1.08-4.1-1.22-4.83l-.22-1.08A152.47,152.47,0,0,1,67.22,1293Z"/><path class="cls-25" d="M115,1297.92a9.94,9.94,0,0,1-3.64,8q-3.63,3.06-9.66,3.07a21.39,21.39,0,0,1-10.52-2.28v-8.41a17.65,17.65,0,0,0,10.52,3.58,4.86,4.86,0,0,0,3.15-1,3.39,3.39,0,0,0,1.09-3.66,2.43,2.43,0,0,0-.6-.92,7.52,7.52,0,0,0-.84-.73,9.26,9.26,0,0,0-1.19-.71l-1.33-.68-1.61-.76c-.7-.32-1.27-.58-1.7-.76a16.9,16.9,0,0,1-5.67-4,9.15,9.15,0,0,1-2.15-6.35,9.48,9.48,0,0,1,3.47-7.63q3.48-2.9,9.61-2.9a22.2,22.2,0,0,1,9.44,1.85v7.81a17.93,17.93,0,0,0-9.12-2.55,5.13,5.13,0,0,0-3.22.87,2.68,2.68,0,0,0-1.12,2.22,3.06,3.06,0,0,0,1.36,2.42,20.13,20.13,0,0,0,4.07,2.25c1.12.51,2,.95,2.79,1.33a21.75,21.75,0,0,1,2.56,1.57,10.16,10.16,0,0,1,2.27,2.12,10.51,10.51,0,0,1,1.44,2.74A10.1,10.1,0,0,1,115,1297.92Z"/><path class="cls-25" d="M146.77,1308.55H131V1272h14.21q6,0,9.17,2.85a9.33,9.33,0,0,1,3.15,7.24,8.61,8.61,0,0,1-1.52,5,7.4,7.4,0,0,1-4,2.93q6.34,1.89,6.35,8.57a9.15,9.15,0,0,1-3.12,7.14Q152.14,1308.55,146.77,1308.55Zm-3-29.9h-4.45v8.2h3.1a8.35,8.35,0,0,0,4.91-1.2,3.69,3.69,0,0,0,1.65-3.14C149,1279.94,147.26,1278.65,143.78,1278.65Zm0,14.76h-4.45v8.47h4.4q6.18,0,6.18-4.23T143.78,1293.41Z"/><path class="cls-25" d="M170.81,1308.55h-8.36V1272h12.64q6.14,0,9.85,3.25a10.73,10.73,0,0,1,3.72,8.47q0,7.82-6.68,10.8l9.28,14h-10l-7.92-12.7h-2.55Zm4.12-29.79h-4.12v10.31h4q5.41,0,5.42-5.32a4.8,4.8,0,0,0-1.41-3.66A5.36,5.36,0,0,0,174.93,1278.76Z"/><path class="cls-25" d="M217.15,1308.55H194.41V1272h22.52v6.67H202.82V1287h12.59v6.62H202.82v8.3h14.33Z"/><path class="cls-25" d="M249.6,1306.92q-3.32,2.07-9.55,2.07a18.63,18.63,0,0,1-13.44-5.19,17.8,17.8,0,0,1-5.39-13.43q0-8.36,5.23-13.62t13.65-5.26q6.18,0,9.5,2.06v8a17.06,17.06,0,0,0-9.07-2.49,9.9,9.9,0,0,0-7.38,3.06,11.3,11.3,0,0,0-3,8.22,10.76,10.76,0,0,0,3,8,10.49,10.49,0,0,0,7.71,2.95,14.6,14.6,0,0,0,8.74-2.6Z"/><path class="cls-25" d="M284.65,1308.55h-8.41V1294h-13.4v14.59h-8.36V1272h8.36v14.87h13.4V1272h8.41Z"/><path class="cls-25" d="M296.8,1308.55h-8.73L300.28,1272H310.8L323,1308.55h-8.95l-2.22-7.49H299Zm4.62-15.52-.38,1.31h8.79l-.38-1.31q-1.57-5.31-2.58-9.06c-.67-2.5-1.08-4.1-1.22-4.83l-.22-1.08Q305,1281,301.42,1293Z"/><path class="cls-25" d="M349.17,1297.92a9.94,9.94,0,0,1-3.64,8q-3.63,3.06-9.66,3.07a21.39,21.39,0,0,1-10.52-2.28v-8.41a17.65,17.65,0,0,0,10.52,3.58,4.86,4.86,0,0,0,3.15-1,3.21,3.21,0,0,0,1.25-2.63,3.52,3.52,0,0,0-.16-1,2.43,2.43,0,0,0-.6-.92,7.52,7.52,0,0,0-.84-.73,8.82,8.82,0,0,0-1.2-.71l-1.32-.68-1.61-.76c-.7-.32-1.27-.58-1.71-.76a17.1,17.1,0,0,1-5.67-4,9.19,9.19,0,0,1-2.14-6.35,9.48,9.48,0,0,1,3.47-7.63q3.48-2.9,9.61-2.9a22.2,22.2,0,0,1,9.44,1.85v7.81a17.93,17.93,0,0,0-9.12-2.55,5.13,5.13,0,0,0-3.22.87,2.68,2.68,0,0,0-1.12,2.22,3,3,0,0,0,1.36,2.42,20.13,20.13,0,0,0,4.07,2.25c1.12.51,2.05.95,2.79,1.33a21.72,21.72,0,0,1,2.55,1.57,10,10,0,0,1,2.28,2.12,10.51,10.51,0,0,1,1.44,2.74A10.1,10.1,0,0,1,349.17,1297.92Z"/><path class="cls-25" d="M377.66,1308.55H365.18V1272h12.59q8.24,0,13.51,5.07a16.81,16.81,0,0,1,5.26,12.62q0,8.79-5.18,13.84T377.66,1308.55Zm-.17-29.68h-3.74v22.84h3.8c3.36,0,6-1,7.78-3.14s2.75-5.07,2.75-8.9a11,11,0,0,0-2.77-7.84C383.46,1279.86,380.86,1278.87,377.49,1278.87Z"/><path class="cls-25" d="M423.62,1308.55H400.88V1272H423.4v6.67H409.29V1287h12.59v6.62H409.29v8.3h14.33Z"/><path class="cls-25" d="M58.85,1359q-3,1.85-8.6,1.85a16.77,16.77,0,0,1-12.09-4.66,16,16,0,0,1-4.86-12.09A16.62,16.62,0,0,1,38,1331.87q4.71-4.74,12.28-4.74,5.56,0,8.55,1.86v7.23a15.32,15.32,0,0,0-8.16-2.25,8.89,8.89,0,0,0-6.64,2.76,10.17,10.17,0,0,0-2.69,7.4,9.67,9.67,0,0,0,2.69,7.2A9.41,9.41,0,0,0,51,1354a13.21,13.21,0,0,0,7.87-2.35Z"/><path class="cls-25" d="M89.76,1347.74q0,6.45-3.62,9.84t-9.76,3.4q-6.06,0-9.72-3.37T63,1348.09v-20.52h7.52V1348q0,6.11,5.86,6.1t5.86-6.35v-20.22h7.52Z"/><path class="cls-25" d="M102.65,1360.49H95.13v-32.92h7.52Z"/><path class="cls-25" d="M119.5,1360.49H108.27v-32.92H119.6a16.82,16.82,0,0,1,12.16,4.57,15.12,15.12,0,0,1,4.74,11.36q0,7.9-4.67,12.45T119.5,1360.49Zm-.15-26.71H116v20.56h3.42a8.79,8.79,0,0,0,7-2.84c1.64-1.88,2.47-4.55,2.47-8a9.9,9.9,0,0,0-2.49-7.06A9.15,9.15,0,0,0,119.35,1333.78Z"/><path class="cls-25" d="M146.21,1360.49h-7.86l11-32.92h9.47l11,32.92h-8.05l-2-6.74H148.22Zm4.16-14-.35,1.18h7.92l-.35-1.18q-1.41-4.79-2.32-8.15c-.6-2.25-1-3.7-1.09-4.35l-.2-1Q153.59,1335.74,150.37,1346.52Z"/><path class="cls-25" d="M184.11,1360.49H172.88v-32.92h11.33a16.82,16.82,0,0,1,12.16,4.57,15.12,15.12,0,0,1,4.74,11.36q0,7.9-4.67,12.45T184.11,1360.49Zm-.14-26.71H180.6v20.56H184a8.79,8.79,0,0,0,7-2.84q2.47-2.82,2.47-8a9.9,9.9,0,0,0-2.49-7.06A9.14,9.14,0,0,0,184,1333.78Z"/><path class="cls-25" d="M235.83,1343.93q0,7.58-4.37,12.24t-11.65,4.66q-7.32,0-11.67-4.64t-4.35-12.26q0-7.56,4.37-12.23t11.65-4.66q7.33,0,11.67,4.64T235.83,1343.93ZM214,1336.58a13.64,13.64,0,0,0,0,14.7,7.57,7.57,0,0,0,11.62,0,13.64,13.64,0,0,0,0-14.7,7.58,7.58,0,0,0-11.62,0Z"/><path class="cls-25" d="M260.2,1350.92a9,9,0,0,1-3.27,7.2,13,13,0,0,1-8.7,2.76,19.24,19.24,0,0,1-9.47-2.05v-7.57a15.83,15.83,0,0,0,9.47,3.22,4.41,4.41,0,0,0,2.84-.9,2.88,2.88,0,0,0,1.12-2.37,2.92,2.92,0,0,0-.15-.93,2.05,2.05,0,0,0-.53-.83,7.13,7.13,0,0,0-.76-.66,8.45,8.45,0,0,0-1.08-.63l-1.19-.61-1.44-.69c-.64-.29-1.15-.52-1.54-.68a15.38,15.38,0,0,1-5.1-3.61,8.22,8.22,0,0,1-1.93-5.72,8.51,8.51,0,0,1,3.12-6.86q3.14-2.61,8.65-2.61a19.87,19.87,0,0,1,8.49,1.66v7a16.1,16.1,0,0,0-8.2-2.29,4.67,4.67,0,0,0-2.91.78,2.45,2.45,0,0,0-1,2,2.74,2.74,0,0,0,1.22,2.17,17.94,17.94,0,0,0,3.67,2c1,.46,1.84.85,2.51,1.2a20.58,20.58,0,0,1,2.3,1.41,9.29,9.29,0,0,1,2.05,1.91,9.79,9.79,0,0,1,1.29,2.46A9.15,9.15,0,0,1,260.2,1350.92Z"/><path class="cls-25" d="M295.07,1360.49H274.61v-32.92h20.26v6H282.18v7.47h11.33v6H282.18v7.47h12.89Z"/><path class="cls-25" d="M307.47,1360.49H300v-32.92h8.26l7.66,13.63c1.08,1.92,2,3.72,2.81,5.4a35.93,35.93,0,0,1,1.54,3.54l.39,1.07a80.08,80.08,0,0,1-.49-10v-13.63h7.52v32.92h-8.25l-7.86-13.63c-1-1.75-2-3.49-2.76-5.2s-1.34-3-1.64-3.78l-.39-1.22a62.54,62.54,0,0,1,.73,10.2Z"/><path class="cls-25" d="M363.44,1360.49H343.76v-32.92h7.52v26.33h12.16Z"/><path class="cls-25" d="M397.19,1343.93q0,7.58-4.37,12.24t-11.65,4.66c-4.88,0-8.78-1.54-11.67-4.64s-4.35-7.18-4.35-12.26,1.46-9.12,4.37-12.23,6.8-4.66,11.65-4.66,8.77,1.54,11.67,4.64S397.19,1338.86,397.19,1343.93Zm-21.83-7.35a13.64,13.64,0,0,0,0,14.7,7.57,7.57,0,0,0,11.62,0,13.64,13.64,0,0,0,0-14.7,7.58,7.58,0,0,0-11.62,0Z"/><path class="cls-25" d="M421.56,1350.92a9,9,0,0,1-3.27,7.2,13.06,13.06,0,0,1-8.7,2.76,19.24,19.24,0,0,1-9.47-2.05v-7.57a15.83,15.83,0,0,0,9.47,3.22,4.38,4.38,0,0,0,2.83-.9,2.89,2.89,0,0,0,1.13-2.37,2.92,2.92,0,0,0-.15-.93,2.2,2.2,0,0,0-.54-.83,7.09,7.09,0,0,0-.75-.66,10.16,10.16,0,0,0-1.08-.63l-1.19-.61-1.44-.69c-.64-.29-1.15-.52-1.54-.68a15.54,15.54,0,0,1-5.11-3.61,8.27,8.27,0,0,1-1.93-5.72A8.52,8.52,0,0,1,403,1330q3.12-2.61,8.64-2.61a19.92,19.92,0,0,1,8.5,1.66v7a16.13,16.13,0,0,0-8.2-2.29,4.67,4.67,0,0,0-2.91.78,2.42,2.42,0,0,0-1,2,2.74,2.74,0,0,0,1.22,2.17,17.82,17.82,0,0,0,3.66,2c1,.46,1.85.85,2.52,1.2a19.68,19.68,0,0,1,2.29,1.41,9.13,9.13,0,0,1,2.06,1.91,9.79,9.79,0,0,1,1.29,2.46A9.15,9.15,0,0,1,421.56,1350.92Z"/><path class="cls-25" d="M33.6,1404.68H27.75l2.2-25.6h6.42l3.57,9.26q.91,2.33,1.56,4.26t.84,2.73l.19.76a66.84,66.84,0,0,1,2.66-7.75l3.6-9.26h6.42l2.66,25.6H52l-1-9.92-.49-7.48q-1,2.85-2.74,7.48l-3.6,9.65H40.78l-3.57-9.65c-.58-1.57-1.08-3-1.48-4.21s-.67-2.11-.8-2.59l-.19-.68q0,2.7-.34,7.48Z"/><path class="cls-25" d="M81.92,1394.76q0,5-2.81,7.66a10.67,10.67,0,0,1-7.6,2.64,10.76,10.76,0,0,1-7.56-2.62A9.57,9.57,0,0,1,61.1,1395v-16H67V1395q0,4.76,4.56,4.75t4.56-4.94v-15.72h5.85Z"/><path class="cls-25" d="M91.56,1404.68H85.71v-25.6h6.42l6,10.59q1.25,2.25,2.18,4.2a30,30,0,0,1,1.2,2.75l.3.84a62.15,62.15,0,0,1-.38-7.79v-10.59h5.85v25.6h-6.42l-6.11-10.6q-1.22-2.05-2.15-4c-.62-1.33-1-2.31-1.27-2.94l-.31-.95a48.84,48.84,0,0,1,.57,7.94Z"/><path class="cls-25" d="M117.47,1404.68h-5.85v-25.6h5.85Z"/><path class="cls-25" d="M140.75,1403.54a12.72,12.72,0,0,1-6.68,1.44,13,13,0,0,1-9.4-3.63,12.43,12.43,0,0,1-3.78-9.4,12.6,12.6,0,0,1,13.22-13.22,12.54,12.54,0,0,1,6.64,1.45v5.62a11.84,11.84,0,0,0-6.34-1.75,7,7,0,0,0-5.17,2.15,7.91,7.91,0,0,0-2.09,5.75,7.53,7.53,0,0,0,2.09,5.6,7.33,7.33,0,0,0,5.4,2.07,10.16,10.16,0,0,0,6.11-1.82Z"/><path class="cls-25" d="M150.4,1404.68h-5.85v-25.6h5.85Z"/><path class="cls-25" d="M163.58,1396.4h-3v8.28h-5.85v-25.6h8.81a9.86,9.86,0,0,1,6.9,2.39,7.84,7.84,0,0,1,2.64,6.08,8,8,0,0,1-2.76,6.53A10.18,10.18,0,0,1,163.58,1396.4Zm-.68-12.65h-2.28v8h1.94q4.63,0,4.63-4.21C167.19,1385,165.76,1383.75,162.9,1383.75Z"/><path class="cls-25" d="M181.43,1404.68h-5.85v-25.6h5.85Z"/><path class="cls-25" d="M209.77,1391.8a13.34,13.34,0,0,1-3.4,9.52,13.19,13.19,0,0,1-18.14,0,15.08,15.08,0,0,1,0-19,13.19,13.19,0,0,1,18.14,0A13.38,13.38,0,0,1,209.77,1391.8Zm-17-5.72a10.63,10.63,0,0,0,0,11.44,5.91,5.91,0,0,0,9,0,10.63,10.63,0,0,0,0-11.44,5.91,5.91,0,0,0-9,0Z"/><path class="cls-25" d="M228.72,1397.23a7,7,0,0,1-2.54,5.6,10.1,10.1,0,0,1-6.76,2.15,15,15,0,0,1-7.37-1.59v-5.89a12.32,12.32,0,0,0,7.37,2.5,3.39,3.39,0,0,0,2.2-.7,2.25,2.25,0,0,0,.87-1.84,2.17,2.17,0,0,0-.11-.72,1.81,1.81,0,0,0-.42-.65,5.21,5.21,0,0,0-.59-.51,7,7,0,0,0-.83-.49l-.93-.48-1.12-.53c-.5-.23-.9-.41-1.2-.53a12,12,0,0,1-4-2.81,6.43,6.43,0,0,1-1.5-4.45,6.6,6.6,0,0,1,2.43-5.33,10.14,10.14,0,0,1,6.72-2,15.53,15.53,0,0,1,6.61,1.29v5.47a12.52,12.52,0,0,0-6.38-1.78,3.6,3.6,0,0,0-2.26.61,1.87,1.87,0,0,0-.78,1.55,2.12,2.12,0,0,0,1,1.69,14.07,14.07,0,0,0,2.85,1.58c.79.36,1.44.67,2,.93a15.89,15.89,0,0,1,1.78,1.1,7.23,7.23,0,0,1,1.6,1.48,7.52,7.52,0,0,1,1,1.92A7.36,7.36,0,0,1,228.72,1397.23Z"/><path class="cls-25" d="M248.67,1404.68h-8.74v-25.6h8.81a13.06,13.06,0,0,1,9.46,3.55,11.75,11.75,0,0,1,3.68,8.83q0,6.15-3.62,9.68A13.15,13.15,0,0,1,248.67,1404.68Zm-.12-20.78h-2.62v16h2.66a6.84,6.84,0,0,0,5.45-2.2,9.2,9.2,0,0,0,1.92-6.23A7.72,7.72,0,0,0,254,1386,7.12,7.12,0,0,0,248.55,1383.9Z"/><path class="cls-25" d="M280.84,1404.68H264.92v-25.6h15.77v4.67h-9.88v5.81h8.81v4.63h-8.81V1400h10Z"/><path class="cls-25" d="M298.46,1404.68h-5.85l2.21-25.6h6.42l3.57,9.26c.6,1.55,1.12,3,1.55,4.26s.71,2.2.84,2.73l.19.76a66.84,66.84,0,0,1,2.66-7.75l3.61-9.26h6.42l2.65,25.6h-5.85l-.94-9.92-.5-7.48q-1,2.85-2.73,7.48l-3.61,9.65h-3.46l-3.57-9.65c-.58-1.57-1.08-3-1.48-4.21s-.67-2.11-.8-2.59l-.19-.68q0,2.7-.34,7.48Z"/><path class="cls-25" d="M342.07,1404.68H326.15v-25.6h15.77v4.67H332v5.81h8.81v4.63H332V1400h10Zm-5.36-27.39h-4.59l3.26-6.72h5.55Z"/><path class="cls-25" d="M351.49,1404.68h-7.07l8.09-13-7.71-12.61h6.8l4.26,7.48,4.06-7.48h7.14l-7.75,12.64,8.25,13h-6.95l-4.64-8Z"/><path class="cls-25" d="M376.33,1404.68h-5.85v-25.6h5.85Z"/><path class="cls-25" d="M399.61,1403.54a12.72,12.72,0,0,1-6.68,1.44,13,13,0,0,1-9.4-3.63,12.43,12.43,0,0,1-3.78-9.4A12.6,12.6,0,0,1,393,1378.73a12.54,12.54,0,0,1,6.64,1.45v5.62a11.81,11.81,0,0,0-6.34-1.75,6.91,6.91,0,0,0-5.16,2.15A7.86,7.86,0,0,0,386,1392a7.49,7.49,0,0,0,2.09,5.6,7.29,7.29,0,0,0,5.39,2.07,10.16,10.16,0,0,0,6.11-1.82Z"/><path class="cls-25" d="M427,1391.8a13.34,13.34,0,0,1-3.4,9.52,13.19,13.19,0,0,1-18.14,0,15.08,15.08,0,0,1,0-19,13.19,13.19,0,0,1,18.14,0A13.38,13.38,0,0,1,427,1391.8Zm-17-5.72a10.63,10.63,0,0,0,0,11.44,5.91,5.91,0,0,0,9,0,10.63,10.63,0,0,0,0-11.44,5.91,5.91,0,0,0-9,0Z"/></g></svg>