<svg id="Capa_1" data-name="Capa 1" xmlns="http://www.w3.org/2000/svg" xmlns:xlink="http://www.w3.org/1999/xlink" viewBox="0 0 1483 455"><defs><style>.cls-1,.cls-17{fill:none;}.cls-2{clip-path:url(#clip-path);}.cls-3{opacity:0.05;}.cls-4{fill:#0f6343;}.cls-5{fill:#f8eac3;}.cls-10,.cls-11,.cls-12,.cls-13,.cls-14,.cls-15,.cls-17,.cls-19,.cls-20,.cls-23,.cls-24,.cls-5,.cls-6,.cls-7,.cls-8{stroke:#1d1e1c;}.cls-10,.cls-11,.cls-12,.cls-13,.cls-14,.cls-15,.cls-17,.cls-18,.cls-19,.cls-20,.cls-23,.cls-24,.cls-25,.cls-5,.cls-6,.cls-7,.cls-8{stroke-miterlimit:10;}.cls-10,.cls-11,.cls-12,.cls-13,.cls-14,.cls-15,.cls-17,.cls-18,.cls-19,.cls-20,.cls-23,.cls-24,.cls-5,.cls-6,.cls-7,.cls-8{stroke-width:2px;}.cls-6{fill:#57a293;}.cls-22,.cls-7{fill:#fff;}.cls-8{fill:#f199b4;}.cls-9{fill:#1d1e1c;}.cls-10{fill:#f2b91a;}.cls-11{fill:#3a407f;}.cls-12{fill:#d2a97d;}.cls-13,.cls-16{fill:#b696c4;}.cls-14{fill:#485aa4;}.cls-15{fill:#f7dac6;}.cls-18,.cls-25{fill:#44b28b;}.cls-18{stroke:#1d1d1b;}.cls-19{fill:#00b2d4;}.cls-20,.cls-21{fill:#6eaadc;}.cls-23{fill:#c5d983;}.cls-24{fill:#e73c37;}.cls-25{stroke:#44b28b;stroke-width:0.5px;}</style><clipPath id="clip-path"><rect class="cls-1" width="1483" height="455"/></clipPath></defs><g class="cls-2"><g class="cls-3"><circle class="cls-4" cx="1375.37" cy="427.79" r="93"/><circle class="cls-4" cx="1123.83" cy="16.46" r="93"/><rect class="cls-4" x="1244.13" y="71.51" width="200.71" height="204.2" transform="translate(270.38 -653.48) rotate(30.24)"/><polygon class="cls-4" points="983.01 532.63 1009.73 443.41 1036.45 354.19 1100.35 421.94 1164.26 489.68 1073.64 511.16 983.01 532.63"/><polygon class="cls-4" points="990.42 311.34 996.79 218.43 1003.16 125.51 1080.44 177.48 1157.72 229.46 1074.07 270.4 990.42 311.34"/></g><g class="cls-3"><circle class="cls-4" cx="169.94" cy="443.66" r="93"/><circle class="cls-4" cx="417.37" cy="394.79" r="93"/><circle class="cls-4" cx="645.12" cy="82.72" r="93"/><circle class="cls-4" cx="165.83" cy="-16.54" r="93"/><rect class="cls-4" x="286.13" y="38.51" width="200.71" height="204.2" transform="translate(123.4 -175.51) rotate(30.24)"/><rect class="cls-4" x="732.19" y="133.25" width="200.71" height="204.2" transform="translate(332.6 -470.75) rotate(38.92)"/><polygon class="cls-4" points="592.01 494.63 618.73 405.41 645.45 316.19 709.35 383.94 773.26 451.68 682.64 473.16 592.01 494.63"/><polygon class="cls-4" points="32.42 278.34 38.79 185.43 45.16 92.51 122.44 144.48 199.72 196.46 116.07 237.4 32.42 278.34"/></g><ellipse class="cls-5" cx="92.97" cy="235.99" rx="7.46" ry="10.83" transform="translate(-159.31 209.73) rotate(-62.55)"/><path class="cls-6" d="M172.58,289.57l-11.49,89.16-33.74-2.12,18.32-100.42,39.84-.21L215,355l-27.65,17.4s-15.44-32.69-17.59-38.64l-2.15-5.94"/><polygon class="cls-7" points="220.08 370.25 210.75 357.93 196.03 367.27 191.72 396.15 220.08 370.25"/><polygon class="cls-7" points="156.78 377.89 156.07 397 120.17 396.57 138.12 377.04 156.78 377.89"/><path class="cls-8" d="M172.86,236.63s3.17-3.81-8.85,9.52a36.77,36.77,0,0,1-16.51,10.57c-.69.22-1.38.42-2.06.61-7.31,2-14.6,2.11-20.64,2.78-11.38,1.27-31.62-13.33-31.62-13.33l8.22-15.87s2.53.64,19.61,5.08,15.81-.63,30.35-20.31,27.2-11.42,27.2-11.42,8.22,27.5,6.95,64.95V276l-39.84-.64s.42-18,.21-17.13"/><ellipse class="cls-5" cx="170.12" cy="188.6" rx="17.07" ry="17.14"/><ellipse class="cls-9" cx="175.4" cy="184.7" rx="10.55" ry="14.79" transform="translate(-75.63 141.52) rotate(-36.72)"/><ellipse class="cls-10" cx="65.97" cy="199.1" rx="34.97" ry="35.1"/><rect class="cls-11" x="264.73" y="269.42" width="49.34" height="97.04"/><polygon class="cls-7" points="265.55 388.25 314.07 388.25 292.69 367.69 266.38 366.87 265.55 388.25"/><ellipse class="cls-12" cx="348.61" cy="215.14" rx="13.16" ry="9.05" transform="translate(-20.05 393.75) rotate(-57.53)"/><path class="cls-13" d="M278.09,251.32s20.48,22.21,43.33,25.5,36.24-50.17,36.24-50.17L334,214.32l-16.55,16.44-22.06-25.49s-32.3,0-31.51,34.54,1.54,35.47,1.54,35.47l49.43-.42"/><circle class="cls-12" cx="281.59" cy="190.88" r="19.74"/><circle class="cls-9" cx="261.44" cy="177.31" r="12.34"/><ellipse class="cls-9" cx="272.54" cy="184.71" rx="14.39" ry="10.28" transform="translate(-39.05 291.04) rotate(-52.97)"/><polygon class="cls-14" points="400.59 202.33 360.46 202.83 320.33 203.32 339.96 168.32 359.6 133.32 380.09 167.82 400.59 202.33"/><path class="cls-15" d="M826.23,91.5l-15.64-7s-56.33-9.22-59-9.83c-13.25-3.13-25,7.75-5.07,16.35s59.82,15.45,65,14.64S825.46,99.48,826.23,91.5Z"/><path class="cls-15" d="M800.13,71.59S765,60.71,758.48,64.44c-3.47,2-6.83,8.65-.4,10.43s46.32,8.66,46.32,8.66l6.45-4.66Z"/><ellipse class="cls-15" cx="814.78" cy="67.72" rx="16.73" ry="17.16" transform="translate(18.64 253.77) rotate(-17.9)"/><path class="cls-16" d="M813.4,138.59l13.36,97L863,226.07l-8.11-48.71-.14-.16-6-36.71,6.14,36.87c.28.34,1.16,1.36,3.89,4.54,4,4.72,30,29.4,30,29.4l24-25.38L858.49,126.6Z"/><path class="cls-16" d="M848.76,140.49l6,36.71.14.16Z"/><path class="cls-17" d="M854.9,177.36l-.14-.16"/><path class="cls-17" d="M854.9,177.36,863,226.07l-36.25,9.56-13.36-97,45.09-12,54.33,59.32-24,25.38s-26-24.68-30-29.4C856.06,178.72,855.18,177.7,854.9,177.36Z"/><line class="cls-17" x1="848.76" y1="140.49" x2="854.9" y2="177.36"/><polygon class="cls-7" points="923.5 197.29 910 189.19 897.23 202.77 901.23 230.68 923.5 197.29"/><polygon class="cls-7" points="859.44 226.68 863.11 244.5 825.09 256.35 838.25 232.34 859.44 226.68"/><path class="cls-11" d="M862,127.18s-15.16-50.16-40.8-44-9.94,58.61-9.94,58.61Z"/><polygon class="cls-18" points="758.31 165.05 717.48 165.55 676.65 166.06 696.63 130.44 716.61 94.83 737.46 129.94 758.31 165.05"/><ellipse class="cls-19" cx="825.95" cy="312.94" rx="55.37" ry="52.94"/><ellipse class="cls-9" cx="819.35" cy="64.06" rx="10.98" ry="15.23" transform="translate(115.19 487.85) rotate(-35.51)"/><circle class="cls-9" cx="831.57" cy="51.17" r="12.34"/><ellipse class="cls-12" cx="724.64" cy="212.86" rx="11.38" ry="7.61" transform="translate(-23.08 319.28) rotate(-24.47)"/><path class="cls-20" d="M639.91,213.5s-3.35-3.85,9.39,9.62a39.36,39.36,0,0,0,17.52,10.68c.72.22,1.45.42,2.18.61,7.75,2,15.48,2.13,21.88,2.81,12.07,1.28,33.53-13.46,33.53-13.46l-8.72-16s-2.68.64-20.78,5.13-16.77-.64-32.19-20.52-28.84-11.54-28.84-11.54-8.72,27.78-7.38,65.61v6.84l42.25-.64s-.45-18.17-.22-17.31"/><ellipse class="cls-12" cx="642.82" cy="164.99" rx="18.11" ry="17.31"/><ellipse class="cls-9" cx="637.22" cy="161.06" rx="15.23" ry="10.98" transform="translate(97.78 536.55) rotate(-49.03)"/><rect class="cls-11" x="627.62" y="253.16" width="39.38" height="97.04"/><polygon class="cls-7" points="628.36 371.99 672 371.99 652.77 351.43 629.1 350.61 628.36 371.99"/><path class="cls-15" d="M525.78,217.53l-14.25-12.79S454.77,175.57,452.19,174c-13-7.88-29.28-.34-11,15.65s58.34,37,64.12,37.93S522.22,225.76,525.78,217.53Z"/><path class="cls-15" d="M504.85,187.37S471.23,163.73,463,165.44c-4.36.91-10.24,6.86-4,11s46.31,25.13,46.31,25.13l8.46-2.74Z"/><ellipse class="cls-15" cx="521.77" cy="188.29" rx="18.7" ry="19.19"/><path class="cls-9" d="M525.49,169.68c6.79-2,14.41,3.78,17,13a22.79,22.79,0,0,1,.78,4.3c.25,0,.49,0,.73,0a17,17,0,0,1,16.66,14.38,21.87,21.87,0,0,1,2.94-.22c12.29,0,22.26,10.23,22.26,22.85s-10,22.85-22.26,22.85-22.27-10.23-22.27-22.85c0-.85.06-1.68.14-2.5a17.22,17.22,0,0,1-14.39-17.15,17.86,17.86,0,0,1,.14-2.08c-4.11-2-7.68-6.44-9.31-12.17C515.32,180.82,518.7,171.71,525.49,169.68Z"/><path class="cls-21" d="M495.94,263.23,476.8,371.07l41.85,2.29,8.11-54.61-.09-.22,6.24-41.13-6.15,41.35c.19.45.78,1.85,2.58,6.17,2.67,6.4,21.81,41.59,21.81,41.59l34.3-18.74L548,266Z"/><path class="cls-22" d="M532.91,277.4l-6.24,41.13.09.22Z"/><path class="cls-17" d="M526.76,318.75l-.09-.22"/><path class="cls-17" d="M526.76,318.75l-8.11,54.61-41.85-2.29,19.14-107.84L548,266l37.41,81.8-34.3,18.74S532,331.32,529.34,324.92C527.54,320.6,527,319.2,526.76,318.75Z"/><line class="cls-17" x1="532.91" y1="277.4" x2="526.76" y2="318.75"/><polygon class="cls-7" points="592.91 363.53 581.33 350.28 563.07 360.33 557.73 391.4 592.91 363.53"/><polygon class="cls-7" points="514.64 372.78 512.42 393 467.89 392.54 490.15 371.52 514.64 372.78"/><path class="cls-23" d="M551.6,267.8s1.12-58.58-28.27-60.89-30.73,58.94-30.73,58.94Z"/><rect class="cls-24" x="418.21" y="89.25" width="68.84" height="68.84" transform="translate(55.93 374.25) rotate(-47.56)"/><path class="cls-25" d="M981.68,185.39H955.86V142.22h9.87v34.52h15.95Z"/><path class="cls-25" d="M993.14,185.39H982.83l14.41-43.17h12.43l14.41,43.17h-10.57l-2.63-8.84H995.77Zm5.45-18.32-.45,1.54h10.37l-.44-1.54q-1.86-6.27-3.05-10.7t-1.44-5.7l-.25-1.28Q1002.81,152.92,998.59,167.07Z"/><path class="cls-25" d="M1055,172.84a11.76,11.76,0,0,1-4.29,9.44q-4.29,3.63-11.4,3.62-7.63,0-12.43-2.69v-9.93a20.8,20.8,0,0,0,12.43,4.23,5.73,5.73,0,0,0,3.71-1.18,4,4,0,0,0,1.28-4.33,2.93,2.93,0,0,0-.7-1.09,8.23,8.23,0,0,0-1-.86,12.31,12.31,0,0,0-1.4-.83l-1.57-.8q-.64-.33-1.89-.9c-.84-.39-1.51-.68-2-.9a20.07,20.07,0,0,1-6.69-4.74,10.77,10.77,0,0,1-2.53-7.49,11.13,11.13,0,0,1,4.1-9q4.1-3.42,11.33-3.43a26.28,26.28,0,0,1,11.15,2.18v9.22a21.24,21.24,0,0,0-10.76-3,6.09,6.09,0,0,0-3.81,1,3.18,3.18,0,0,0-1.32,2.62,3.63,3.63,0,0,0,1.6,2.86,23.58,23.58,0,0,0,4.81,2.65c1.32.6,2.42,1.12,3.3,1.57a28.15,28.15,0,0,1,3,1.86,11.89,11.89,0,0,1,2.69,2.5,12.39,12.39,0,0,1,1.69,3.23A12,12,0,0,1,1055,172.84Z"/><path class="cls-25" d="M1092.48,185.39h-18.64V142.22h16.78q7.11,0,10.83,3.36a11,11,0,0,1,3.71,8.55,10.16,10.16,0,0,1-1.79,6,8.76,8.76,0,0,1-4.68,3.46q7.5,2.23,7.5,10.12a10.82,10.82,0,0,1-3.68,8.42Q1098.82,185.39,1092.48,185.39ZM1089,150.1h-5.25v9.67h3.65a9.85,9.85,0,0,0,5.79-1.41,4.36,4.36,0,0,0,2-3.71C1095.11,151.61,1093.06,150.1,1089,150.1Zm0,17.42h-5.25v10h5.18q7.3,0,7.31-5T1089,167.52Z"/><path class="cls-25" d="M1120.86,185.39H1111V142.22h14.93q7.23,0,11.62,3.84a12.67,12.67,0,0,1,4.39,10q0,9.22-7.88,12.75l11,16.59h-11.78l-9.35-15h-3Zm4.86-35.16h-4.86V162.4h4.67q6.4,0,6.41-6.28a5.67,5.67,0,0,0-1.67-4.33A6.4,6.4,0,0,0,1125.72,150.23Z"/><path class="cls-25" d="M1175.55,185.39h-26.83V142.22h26.58v7.88h-16.66v9.8h14.86v7.81h-14.86v9.8h16.91Z"/><path class="cls-25" d="M1213.86,183.47q-3.91,2.43-11.28,2.43a22,22,0,0,1-15.85-6.12q-6.37-6.1-6.37-15.85t6.18-16.07q6.18-6.23,16.11-6.22,7.29,0,11.21,2.44v9.48a20,20,0,0,0-10.7-2.95,11.68,11.68,0,0,0-8.71,3.62q-3.53,3.61-3.53,9.7t3.53,9.45a12.36,12.36,0,0,0,9.09,3.49,17.26,17.26,0,0,0,10.32-3.07Z"/><path class="cls-25" d="M1255.23,185.39h-9.93V168.16h-15.82v17.23h-9.86V142.22h9.86v17.55h15.82V142.22h9.93Z"/><path class="cls-25" d="M1269.58,185.39h-10.31l14.41-43.17h12.42l14.41,43.17h-10.57l-2.62-8.84H1272.2Zm5.44-18.32-.45,1.54H1285l-.45-1.54q-1.86-6.27-3-10.7t-1.44-5.7l-.26-1.28Q1279.25,152.92,1275,167.07Z"/><path class="cls-25" d="M1331.38,172.84a11.76,11.76,0,0,1-4.29,9.44q-4.29,3.63-11.4,3.62-7.62,0-12.42-2.69v-9.93a20.75,20.75,0,0,0,12.42,4.23,5.75,5.75,0,0,0,3.72-1.18,4,4,0,0,0,1.28-4.33,2.84,2.84,0,0,0-.71-1.09,8.19,8.19,0,0,0-1-.86,11.74,11.74,0,0,0-1.41-.83l-1.57-.8q-.63-.33-1.89-.9c-.83-.39-1.5-.68-2-.9a20.22,20.22,0,0,1-6.7-4.74,10.81,10.81,0,0,1-2.53-7.49,11.16,11.16,0,0,1,4.1-9q4.1-3.42,11.34-3.43a26.2,26.2,0,0,1,11.14,2.18v9.22a21.21,21.21,0,0,0-10.76-3,6.13,6.13,0,0,0-3.81,1,3.19,3.19,0,0,0-1.31,2.62,3.6,3.6,0,0,0,1.6,2.86,23.73,23.73,0,0,0,4.8,2.65c1.33.6,2.43,1.12,3.3,1.57a26.29,26.29,0,0,1,3,1.86,11.68,11.68,0,0,1,2.69,2.5,12.4,12.4,0,0,1,1.7,3.23A12,12,0,0,1,1331.38,172.84Z"/><path class="cls-25" d="M1365,185.39h-14.73V142.22h14.86q9.73,0,15.95,6a19.85,19.85,0,0,1,6.21,14.89q0,10.38-6.12,16.33T1365,185.39Zm-.19-35h-4.42v27h4.48q6,0,9.19-3.72t3.24-10.5a13,13,0,0,0-3.27-9.26Q1370.77,150.36,1364.82,150.35Z"/><path class="cls-25" d="M1419.26,185.39h-26.84V142.22H1419v7.88h-16.65v9.8h14.86v7.81h-14.86v9.8h16.91Z"/><path class="cls-25" d="M988.7,245q-3.51,2.19-10.14,2.19a19.8,19.8,0,0,1-14.27-5.51q-5.73-5.51-5.74-14.27t5.57-14.47q5.57-5.58,14.5-5.59,6.57,0,10.08,2.19V218a18.1,18.1,0,0,0-9.62-2.65,10.5,10.5,0,0,0-7.84,3.26,12,12,0,0,0-3.17,8.73,11.42,11.42,0,0,0,3.17,8.51,11.14,11.14,0,0,0,8.18,3.14,15.47,15.47,0,0,0,9.28-2.77Z"/><path class="cls-25" d="M1025.19,231.65q0,7.6-4.26,11.61t-11.53,4q-7.15,0-11.47-4t-4.33-11.24V207.84h8.88V232q0,7.2,6.92,7.2t6.91-7.49V207.84h8.88Z"/><path class="cls-25" d="M1040.41,246.69h-8.88V207.84h8.88Z"/><path class="cls-25" d="M1060.3,246.69H1047V207.84h13.37q8.76,0,14.36,5.39a17.89,17.89,0,0,1,5.59,13.4q0,9.35-5.51,14.7T1060.3,246.69Zm-.18-31.53h-4v24.27h4c3.58,0,6.33-1.11,8.27-3.34s2.91-5.38,2.91-9.46a11.7,11.7,0,0,0-2.93-8.33Q1065.49,215.17,1060.12,215.16Z"/><path class="cls-25" d="M1091.83,246.69h-9.28l13-38.85h11.18l13,38.85h-9.51l-2.36-7.95h-13.61Zm4.9-16.48-.4,1.38h9.33l-.4-1.38q-1.66-5.66-2.74-9.63t-1.29-5.13l-.23-1.15Q1100.54,217.46,1096.73,230.21Z"/><path class="cls-25" d="M1136.56,246.69H1123.3V207.84h13.38q8.76,0,14.35,5.39a17.86,17.86,0,0,1,5.59,13.4q0,9.35-5.5,14.7T1136.56,246.69Zm-.17-31.53h-4v24.27h4q5.35,0,8.27-3.34t2.91-9.46a11.71,11.71,0,0,0-2.94-8.33Q1141.75,215.17,1136.39,215.16Z"/><path class="cls-25" d="M1197.61,227.15q0,8.94-5.16,14.44t-13.75,5.51q-8.65,0-13.78-5.48t-5.13-14.47q0-8.93,5.16-14.44t13.75-5.5q8.64,0,13.78,5.47T1197.61,227.15Zm-25.77-8.67q-2.53,3.2-2.54,8.67c0,3.65.85,6.55,2.54,8.68a9,9,0,0,0,13.72,0c1.69-2.13,2.54-5,2.54-8.68s-.85-6.54-2.54-8.67a9,9,0,0,0-13.72,0Z"/><path class="cls-25" d="M1226.37,235.4a10.61,10.61,0,0,1-3.86,8.5q-3.87,3.25-10.26,3.26c-4.58,0-8.3-.81-11.19-2.43V235.8a18.7,18.7,0,0,0,11.19,3.8,5.16,5.16,0,0,0,3.34-1.06,3.44,3.44,0,0,0,1.33-2.8,3.28,3.28,0,0,0-.18-1.09,2.35,2.35,0,0,0-.63-1,8.41,8.41,0,0,0-.89-.78,11.26,11.26,0,0,0-1.27-.75l-1.41-.72-1.7-.81-1.82-.81a18,18,0,0,1-6-4.26,9.71,9.71,0,0,1-2.28-6.75,10,10,0,0,1,3.69-8.09q3.69-3.09,10.2-3.09a23.52,23.52,0,0,1,10,2v8.3a19.09,19.09,0,0,0-9.68-2.71,5.5,5.5,0,0,0-3.43.92,2.88,2.88,0,0,0-1.18,2.37,3.22,3.22,0,0,0,1.44,2.56,21.17,21.17,0,0,0,4.32,2.4q1.79.79,3,1.41a23.44,23.44,0,0,1,2.71,1.67,10.59,10.59,0,0,1,2.42,2.25,11.68,11.68,0,0,1,1.53,2.91A10.85,10.85,0,0,1,1226.37,235.4Z"/><path class="cls-25" d="M1267.53,246.69h-24.15V207.84h23.92v7.09h-15v8.82h13.37v7h-13.37v8.82h15.22Z"/><path class="cls-25" d="M1282.17,246.69h-8.88V207.84H1283l9,16.08c1.26,2.27,2.37,4.4,3.31,6.37s1.55,3.38,1.82,4.18l.46,1.27a92.17,92.17,0,0,1-.58-11.82V207.84H1306v38.85h-9.74L1287,230.61a69.25,69.25,0,0,1-3.26-6.14c-.94-2-1.59-3.5-1.93-4.47l-.46-1.44a74.92,74.92,0,0,1,.86,12.05Z"/><path class="cls-25" d="M1348.23,246.69H1325V207.84h8.88v31.07h14.35Z"/><path class="cls-25" d="M1388.06,227.15q0,8.94-5.15,14.44t-13.75,5.51q-8.65,0-13.78-5.48t-5.13-14.47q0-8.93,5.16-14.44t13.75-5.5q8.64,0,13.77,5.47T1388.06,227.15Zm-25.76-8.67c-1.7,2.13-2.54,5-2.54,8.67s.84,6.55,2.54,8.68a9,9,0,0,0,13.72,0c1.69-2.13,2.53-5,2.53-8.68s-.84-6.54-2.53-8.67a9,9,0,0,0-13.72,0Z"/><path class="cls-25" d="M1416.83,235.4a10.61,10.61,0,0,1-3.86,8.5q-3.87,3.25-10.27,3.26-6.85,0-11.18-2.43V235.8a18.7,18.7,0,0,0,11.18,3.8,5.19,5.19,0,0,0,3.35-1.06,3.43,3.43,0,0,0,1.32-2.8,3.28,3.28,0,0,0-.17-1.09,2.45,2.45,0,0,0-.63-1,7.56,7.56,0,0,0-.9-.78,10.15,10.15,0,0,0-1.26-.75l-1.42-.72-1.7-.81-1.81-.81a18.2,18.2,0,0,1-6-4.26,9.71,9.71,0,0,1-2.27-6.75,10,10,0,0,1,3.69-8.09c2.45-2.06,5.86-3.09,10.2-3.09a23.55,23.55,0,0,1,10,2v8.3a19.1,19.1,0,0,0-9.69-2.71,5.54,5.54,0,0,0-3.43.92,2.91,2.91,0,0,0-1.18,2.37,3.22,3.22,0,0,0,1.44,2.56,21.3,21.3,0,0,0,4.33,2.4q1.79.79,3,1.41a24.32,24.32,0,0,1,2.71,1.67,10.81,10.81,0,0,1,2.42,2.25,11.35,11.35,0,0,1,1.52,2.91A10.62,10.62,0,0,1,1416.83,235.4Z"/><path class="cls-25" d="M958.9,298.85H952l2.6-30.22h7.58l4.21,10.94c.72,1.82,1.33,3.5,1.84,5s.84,2.6,1,3.23l.22.9a79.23,79.23,0,0,1,3.14-9.15l4.26-10.94h7.58l3.13,30.22h-6.9l-1.12-11.7-.58-8.83q-1.17,3.36-3.23,8.83l-4.26,11.39h-4.08l-4.22-11.39c-.68-1.86-1.27-3.51-1.74-5s-.8-2.48-.95-3.05l-.22-.8q0,3.18-.4,8.83Z"/><path class="cls-25" d="M1015.93,287.15q0,5.91-3.31,9c-2.22,2.08-5.2,3.12-9,3.12a12.61,12.61,0,0,1-8.92-3.1q-3.36-3.09-3.36-8.74V268.63h6.9v18.79q0,5.59,5.38,5.6t5.38-5.83V268.63h6.9Z"/><path class="cls-25" d="M1027.32,298.85h-6.9V268.63H1028l7,12.51c1,1.76,1.85,3.42,2.58,4.95a33.13,33.13,0,0,1,1.41,3.25l.36,1a72.64,72.64,0,0,1-.44-9.19V268.63h6.9v30.22h-7.58L1031,286.34c-1-1.61-1.8-3.2-2.53-4.77s-1.23-2.73-1.5-3.48l-.36-1.12a57.42,57.42,0,0,1,.67,9.37Z"/><path class="cls-25" d="M1057.9,298.85H1051V268.63h6.9Z"/><path class="cls-25" d="M1085.38,297.5q-2.73,1.71-7.89,1.71a15.4,15.4,0,0,1-11.09-4.28,14.7,14.7,0,0,1-4.47-11.1,14.88,14.88,0,0,1,15.61-15.6c3.4,0,6,.57,7.84,1.7v6.64a14,14,0,0,0-7.48-2.07,8.16,8.16,0,0,0-6.1,2.54,9.29,9.29,0,0,0-2.47,6.79,8.86,8.86,0,0,0,2.47,6.61,8.64,8.64,0,0,0,6.36,2.45,12,12,0,0,0,7.22-2.16Z"/><path class="cls-25" d="M1096.77,298.85h-6.9V268.63h6.9Z"/><path class="cls-25" d="M1112.33,289.08h-3.5v9.77h-6.9V268.63h10.4a11.63,11.63,0,0,1,8.14,2.83,9.26,9.26,0,0,1,3.11,7.17,9.5,9.5,0,0,1-3.25,7.71A12,12,0,0,1,1112.33,289.08Zm-.81-14.93h-2.69v9.46h2.29c3.64,0,5.47-1.66,5.47-5Q1116.59,274.15,1111.52,274.15Z"/><path class="cls-25" d="M1133.4,298.85h-6.91V268.63h6.91Z"/><path class="cls-25" d="M1166.85,283.65q0,6.94-4,11.23a13.93,13.93,0,0,1-10.69,4.28q-6.72,0-10.71-4.26t-4-11.25q0-6.94,4-11.23a13.93,13.93,0,0,1,10.69-4.28q6.72,0,10.72,4.26T1166.85,283.65Zm-20-6.75a12.5,12.5,0,0,0,0,13.5,7,7,0,0,0,10.67,0,12.55,12.55,0,0,0,0-13.5,7,7,0,0,0-10.67,0Z"/><path class="cls-25" d="M1189.22,290.06a8.24,8.24,0,0,1-3,6.62,12,12,0,0,1-8,2.53,17.62,17.62,0,0,1-8.69-1.89v-6.94a14.52,14.52,0,0,0,8.69,3,4,4,0,0,0,2.6-.83,2.83,2.83,0,0,0,.9-3,1.94,1.94,0,0,0-.49-.76,6.22,6.22,0,0,0-.7-.61,7.67,7.67,0,0,0-1-.58l-1.1-.56-1.32-.63-1.42-.63a14.12,14.12,0,0,1-4.68-3.31,7.58,7.58,0,0,1-1.77-5.25,7.79,7.79,0,0,1,2.87-6.3q2.86-2.4,7.93-2.4a18.27,18.27,0,0,1,7.8,1.53v6.45a14.85,14.85,0,0,0-7.53-2.11,4.29,4.29,0,0,0-2.67.72,2.24,2.24,0,0,0-.92,1.84,2.53,2.53,0,0,0,1.13,2,16.24,16.24,0,0,0,3.36,1.86c.92.42,1.69.78,2.31,1.09a18.73,18.73,0,0,1,2.1,1.31,8.24,8.24,0,0,1,1.89,1.74,8.63,8.63,0,0,1,1.18,2.27A8.35,8.35,0,0,1,1189.22,290.06Z"/><path class="cls-25" d="M1212.76,298.85h-10.32V268.63h10.41a15.44,15.44,0,0,1,11.16,4.19,13.9,13.9,0,0,1,4.35,10.43q0,7.26-4.28,11.43T1212.76,298.85Zm-.14-24.53h-3.09V293.2h3.14a8.08,8.08,0,0,0,6.43-2.6q2.26-2.6,2.27-7.35a9.13,9.13,0,0,0-2.29-6.48A8.43,8.43,0,0,0,1212.62,274.32Z"/><path class="cls-25" d="M1250.73,298.85H1232V268.63h18.6v5.52H1238.9V281h10.4v5.48h-10.4v6.86h11.83Z"/><path class="cls-25" d="M1271.53,298.85h-6.9l2.6-30.22h7.58l4.21,10.94c.72,1.82,1.33,3.5,1.84,5s.84,2.6,1,3.23l.22.9a79.23,79.23,0,0,1,3.14-9.15l4.26-10.94h7.58l3.13,30.22h-6.9l-1.12-11.7-.58-8.83q-1.17,3.36-3.23,8.83l-4.26,11.39H1280l-4.22-11.39c-.68-1.86-1.27-3.51-1.74-5s-.8-2.48-1-3.05l-.22-.8c0,2.12-.14,5.06-.4,8.83Z"/><path class="cls-25" d="M1323,298.85h-18.78V268.63h18.61v5.52h-11.66V281h10.4v5.48h-10.4v6.86H1323Zm-6.32-32.33h-5.42l3.85-7.93h6.55Z"/><path class="cls-25" d="M1334.12,298.85h-8.34l9.55-15.33-9.1-14.89h8l5,8.83,4.8-8.83h8.43l-9.15,14.93,9.73,15.29h-8.21l-5.47-9.42Z"/><path class="cls-25" d="M1363.44,298.85h-6.9V268.63h6.9Z"/><path class="cls-25" d="M1390.93,297.5q-2.75,1.71-7.89,1.71a15.42,15.42,0,0,1-11.1-4.28,14.73,14.73,0,0,1-4.46-11.1,14.88,14.88,0,0,1,15.6-15.6c3.41,0,6,.57,7.85,1.7v6.64a14,14,0,0,0-7.49-2.07,8.19,8.19,0,0,0-6.1,2.54,9.33,9.33,0,0,0-2.46,6.79,8.9,8.9,0,0,0,2.46,6.61,8.68,8.68,0,0,0,6.37,2.45,12,12,0,0,0,7.22-2.16Z"/><path class="cls-25" d="M1423.25,283.65q0,6.94-4,11.23a13.93,13.93,0,0,1-10.69,4.28q-6.73,0-10.72-4.26t-4-11.25q0-6.94,4-11.23a14,14,0,0,1,10.7-4.28q6.72,0,10.71,4.26T1423.25,283.65Zm-20-6.75a12.55,12.55,0,0,0,0,13.5,7,7,0,0,0,10.67,0,12.5,12.5,0,0,0,0-13.5,7,7,0,0,0-10.67,0Z"/></g></svg>