<svg id="Capa_1" data-name="Capa 1" xmlns="http://www.w3.org/2000/svg" xmlns:xlink="http://www.w3.org/1999/xlink" viewBox="0 0 1483 455"><defs><style>.cls-1,.cls-14{fill:none;}.cls-2{clip-path:url(#clip-path);}.cls-3{opacity:0.05;}.cls-4{fill:#0f6343;}.cls-5{fill:#f8eac3;}.cls-10,.cls-11,.cls-14,.cls-15,.cls-16,.cls-17,.cls-18,.cls-19,.cls-20,.cls-23,.cls-24,.cls-5,.cls-6,.cls-7,.cls-8{stroke:#1d1e1c;}.cls-10,.cls-11,.cls-14,.cls-15,.cls-16,.cls-17,.cls-18,.cls-19,.cls-20,.cls-22,.cls-23,.cls-24,.cls-5,.cls-6,.cls-7,.cls-8{stroke-miterlimit:10;stroke-width:2px;}.cls-6{fill:#57a293;}.cls-13,.cls-7{fill:#fff;}.cls-8{fill:#f199b4;}.cls-9{fill:#1d1e1c;}.cls-10{fill:#f2b91a;}.cls-11{fill:#f7dac6;}.cls-12,.cls-24{fill:#6eaadc;}.cls-15{fill:#c5d983;}.cls-16{fill:#e73c37;}.cls-17{fill:#3a407f;}.cls-18{fill:#d2a97d;}.cls-19,.cls-21{fill:#b696c4;}.cls-20{fill:#485aa4;}.cls-22{fill:#44b28b;stroke:#1d1d1b;}.cls-23{fill:#00b2d4;}</style><clipPath id="clip-path"><rect class="cls-1" width="1483" height="455"/></clipPath></defs><g class="cls-2"><g class="cls-3"><circle class="cls-4" cx="169.94" cy="443.66" r="93"/><circle class="cls-4" cx="417.37" cy="394.79" r="93"/><circle class="cls-4" cx="645.12" cy="82.72" r="93"/><circle class="cls-4" cx="165.83" cy="-16.54" r="93"/><rect class="cls-4" x="286.13" y="38.51" width="200.71" height="204.2" transform="translate(123.4 -175.51) rotate(30.24)"/><rect class="cls-4" x="732.19" y="133.25" width="200.71" height="204.2" transform="translate(332.6 -470.75) rotate(38.92)"/><polygon class="cls-4" points="592.01 494.63 618.73 405.41 645.45 316.19 709.35 383.94 773.26 451.68 682.64 473.16 592.01 494.63"/><polygon class="cls-4" points="32.42 278.34 38.79 185.43 45.16 92.51 122.44 144.48 199.72 196.46 116.07 237.4 32.42 278.34"/></g><g class="cls-3"><circle class="cls-4" cx="1133.94" cy="470.66" r="93"/><circle class="cls-4" cx="1381.37" cy="421.79" r="93"/><circle class="cls-4" cx="1129.83" cy="10.46" r="93"/><rect class="cls-4" x="1250.13" y="65.51" width="200.71" height="204.2" transform="translate(268.17 -657.32) rotate(30.24)"/><polygon class="cls-4" points="996.42 305.34 1002.79 212.43 1009.16 119.51 1086.44 171.48 1163.72 223.46 1080.07 264.4 996.42 305.34"/></g><ellipse class="cls-5" cx="187.58" cy="224.28" rx="9.1" ry="13.21" transform="translate(-97.91 287.37) rotate(-62.55)"/><path class="cls-6" d="M284.67,289.62l-14,108.74-41.16-2.59,22.35-122.46,48.59-.26,35.89,96.31-33.71,21.23s-18.83-39.87-21.46-47.12l-2.62-7.25"/><polygon class="cls-7" points="342.6 388.01 331.21 372.99 313.26 384.38 308.01 419.6 342.6 388.01"/><polygon class="cls-7" points="265.4 397.34 264.53 420.64 220.74 420.12 242.63 396.3 265.4 397.34"/><path class="cls-8" d="M285,225.05s3.86-4.64-10.8,11.62a44.75,44.75,0,0,1-20.14,12.89c-.83.27-1.67.51-2.51.74-8.91,2.41-17.8,2.57-25.16,3.4-13.88,1.54-38.56-16.26-38.56-16.26l10-19.35s3.09.77,23.91,6.19,19.28-.77,37-24.77S292,185.58,292,185.58s10,33.54,8.49,79.21v8.26l-48.59-.78s.51-21.93.26-20.9"/><ellipse class="cls-5" cx="281.67" cy="166.48" rx="20.82" ry="20.9"/><ellipse class="cls-9" cx="288.11" cy="161.73" rx="12.87" ry="18.04" transform="translate(-39.53 204.34) rotate(-36.72)"/><ellipse class="cls-10" cx="154.64" cy="179.28" rx="42.64" ry="42.8"/><path class="cls-11" d="M785.86,211.43l-15.63-14s-62.3-32-65.12-33.72c-14.3-8.65-32.13-.38-12.1,17.17s64,40.62,70.37,41.63S782,220.46,785.86,211.43Z"/><path class="cls-11" d="M762.9,178.34s-36.9-26-45.94-24.07c-4.79,1-11.24,7.52-4.4,12s50.82,27.58,50.82,27.58l9.29-3Z"/><ellipse class="cls-11" cx="781.47" cy="179.34" rx="20.52" ry="21.06"/><path class="cls-9" d="M785.55,158.92c7.45-2.23,15.81,4.15,18.69,14.25a25.56,25.56,0,0,1,.86,4.71c.27,0,.53,0,.8,0a18.7,18.7,0,0,1,18.28,15.78,24.53,24.53,0,0,1,3.22-.24c13.5,0,24.44,11.23,24.44,25.08s-10.94,25.07-24.44,25.07S803,232.3,803,218.46c0-.93.06-1.85.15-2.75a18.9,18.9,0,0,1-15.79-18.82,19.12,19.12,0,0,1,.15-2.28c-4.51-2.23-8.43-7.07-10.22-13.36C774.39,171.15,778.1,161.15,785.55,158.92Z"/><path class="cls-12" d="M753.11,261.58l-21,118.35L778,382.44l8.89-59.93-.1-.24,6.85-45.14-6.75,45.38c.21.49.86,2,2.83,6.77,2.94,7,24,45.64,24,45.64l37.63-20.57-41.05-89.76Z"/><path class="cls-13" d="M793.68,277.13l-6.85,45.14.1.24Z"/><path class="cls-14" d="M786.93,322.51l-.1-.24"/><path class="cls-14" d="M786.93,322.51,778,382.44l-45.94-2.51,21-118.35,57.18,3,41.05,89.76-37.63,20.57s-21-38.62-24-45.64C787.79,324.54,787.14,323,786.93,322.51Z"/><line class="cls-14" x1="793.68" y1="277.13" x2="786.93" y2="322.51"/><polygon class="cls-7" points="859.53 371.65 846.83 357.11 826.79 368.14 820.93 402.25 859.53 371.65"/><polygon class="cls-7" points="773.65 381.81 771.2 404 722.33 403.5 746.77 380.43 773.65 381.81"/><path class="cls-15" d="M814.21,266.6s1.22-64.29-31-66.82-33.72,64.69-33.72,64.69Z"/><rect class="cls-16" x="667.81" y="70.65" width="75.54" height="75.54" transform="translate(149.44 555.97) rotate(-47.56)"/><rect class="cls-17" x="477.39" y="266.04" width="60.18" height="118.35"/><polygon class="cls-7" points="478.39 410.97 537.57 410.97 511.49 385.89 479.4 384.89 478.39 410.97"/><ellipse class="cls-18" cx="579.69" cy="199.85" rx="16.05" ry="11.03" transform="translate(99.87 581.62) rotate(-57.53)"/><path class="cls-19" d="M493.68,244s25,27.08,52.85,31.09,44.19-61.18,44.19-61.18l-28.82-15L541.72,218.9l-26.9-31.09s-39.39,0-38.43,42.13,1.88,43.25,1.88,43.25l60.28-.5"/><circle class="cls-18" cx="497.95" cy="170.26" r="24.07"/><circle class="cls-9" cx="473.38" cy="153.71" r="15.04"/><ellipse class="cls-9" cx="486.92" cy="162.74" rx="17.55" ry="12.54" transform="translate(63.76 453.44) rotate(-52.97)"/><polygon class="cls-20" points="643.08 184.23 594.13 184.83 545.19 185.44 569.14 142.75 593.09 100.06 618.08 142.15 643.08 184.23"/><path class="cls-11" d="M1223.88,86.07l-19.08-8.5s-68.69-11.25-71.88-12c-16.16-3.81-30.5,9.46-6.19,19.94s73,18.85,79.26,17.86S1222.94,95.8,1223.88,86.07Z"/><path class="cls-11" d="M1192.05,61.79s-42.82-13.27-50.8-8.73c-4.22,2.4-8.33,10.55-.48,12.72s56.49,10.56,56.49,10.56l7.86-5.68Z"/><ellipse class="cls-11" cx="1209.92" cy="57.06" rx="20.4" ry="20.93" transform="translate(41.06 374.74) rotate(-17.9)"/><path class="cls-21" d="M1208.24,143.49l16.29,118.35,44.21-11.66-9.9-59.4-.17-.2-7.32-44.77,7.49,45,4.74,5.53c4.92,5.75,36.59,35.86,36.59,35.86l29.31-30.95-66.25-72.35Z"/><path class="cls-21" d="M1251.35,145.81l7.32,44.77.17.2Z"/><path class="cls-14" d="M1258.84,190.78l-.17-.2"/><path class="cls-14" d="M1258.84,190.78l9.9,59.4-44.21,11.66-16.29-118.35,55-14.62,66.25,72.35-29.31,30.95s-31.67-30.11-36.59-35.86Z"/><line class="cls-14" x1="1251.35" y1="145.81" x2="1258.84" y2="190.78"/><polygon class="cls-7" points="1342.51 215.08 1326.05 205.21 1310.47 221.76 1315.34 255.8 1342.51 215.08"/><polygon class="cls-7" points="1264.38 250.92 1268.85 272.65 1222.49 287.11 1238.55 257.83 1264.38 250.92"/><path class="cls-17" d="M1267.54,129.57s-18.49-61.16-49.76-53.71-12.13,71.48-12.13,71.48Z"/><polygon class="cls-22" points="1144.99 179.09 1095.92 179.69 1046.85 180.3 1070.86 137.5 1094.87 94.7 1119.93 136.89 1144.99 179.09"/><ellipse class="cls-23" cx="1223.54" cy="356.12" rx="67.53" ry="64.56"/><ellipse class="cls-9" cx="1215.49" cy="52.59" rx="13.39" ry="18.57" transform="translate(195.53 715.82) rotate(-35.51)"/><circle class="cls-9" cx="1230.4" cy="36.88" r="15.04"/><ellipse class="cls-18" cx="1099.98" cy="234.07" rx="13.88" ry="9.28" transform="translate(1.85 476.66) rotate(-24.47)"/><path class="cls-24" d="M996.66,234.85s-4.09-4.69,11.45,11.73a48,48,0,0,0,21.36,13c.88.27,1.77.52,2.66.75,9.45,2.43,18.87,2.6,26.69,3.43,14.72,1.56,40.89-16.42,40.89-16.42l-10.63-19.55s-3.28.78-25.36,6.26-20.44-.78-39.25-25S989.3,195,989.3,195s-10.64,33.88-9,80v8.34l51.53-.78s-.55-22.15-.28-21.11"/><ellipse class="cls-18" cx="1000.2" cy="175.69" rx="22.08" ry="21.11"/><ellipse class="cls-9" cx="993.38" cy="170.89" rx="18.57" ry="13.39" transform="translate(212.97 808.83) rotate(-49.03)"/><rect class="cls-17" x="981.66" y="283.22" width="48.03" height="118.35"/><polygon class="cls-7" points="982.57 428.14 1035.79 428.14 1012.34 403.07 983.47 402.06 982.57 428.14"/></g></svg>