<svg id="Capa_1" data-name="Capa 1" xmlns="http://www.w3.org/2000/svg" xmlns:xlink="http://www.w3.org/1999/xlink" viewBox="0 0 1483 455"><defs><style>.cls-1,.cls-18{fill:none;}.cls-2{opacity:0.05;}.cls-3{fill:#0f6343;}.cls-4{clip-path:url(#clip-path);}.cls-19,.cls-5{fill:#44b28b;}.cls-5{stroke:#44b28b;stroke-width:0.5px;}.cls-11,.cls-12,.cls-13,.cls-14,.cls-15,.cls-16,.cls-18,.cls-19,.cls-20,.cls-21,.cls-24,.cls-25,.cls-5,.cls-6,.cls-7,.cls-8,.cls-9{stroke-miterlimit:10;}.cls-6{fill:#f8eac3;}.cls-11,.cls-12,.cls-13,.cls-14,.cls-15,.cls-16,.cls-18,.cls-20,.cls-21,.cls-24,.cls-25,.cls-6,.cls-7,.cls-8,.cls-9{stroke:#1d1e1c;}.cls-11,.cls-12,.cls-13,.cls-14,.cls-15,.cls-16,.cls-18,.cls-19,.cls-20,.cls-21,.cls-24,.cls-25,.cls-6,.cls-7,.cls-8,.cls-9{stroke-width:2px;}.cls-7{fill:#57a293;}.cls-23,.cls-8{fill:#fff;}.cls-9{fill:#f199b4;}.cls-10{fill:#1d1e1c;}.cls-11{fill:#f2b91a;}.cls-12{fill:#3a407f;}.cls-13{fill:#d2a97d;}.cls-14,.cls-17{fill:#b696c4;}.cls-15{fill:#485aa4;}.cls-16{fill:#f7dac6;}.cls-19{stroke:#1d1d1b;}.cls-20{fill:#00b2d4;}.cls-21,.cls-22{fill:#6eaadc;}.cls-24{fill:#c5d983;}.cls-25{fill:#e73c37;}</style><clipPath id="clip-path"><rect class="cls-1" width="1483" height="455"/></clipPath></defs><g class="cls-2"><circle class="cls-3" cx="1375.37" cy="427.79" r="93"/><circle class="cls-3" cx="1123.83" cy="16.46" r="93"/><rect class="cls-3" x="1244.13" y="71.51" width="200.71" height="204.2" transform="translate(270.38 -653.48) rotate(30.24)"/><polygon class="cls-3" points="983.01 532.63 1009.73 443.41 1036.45 354.19 1100.35 421.94 1164.26 489.68 1073.64 511.16 983.01 532.63"/><polygon class="cls-3" points="990.42 311.34 996.79 218.43 1003.16 125.51 1080.44 177.48 1157.72 229.46 1074.07 270.4 990.42 311.34"/></g><g class="cls-2"><polygon class="cls-3" points="379.82 24.14 386.19 -68.77 392.56 -161.69 469.84 -109.71 547.12 -57.74 463.47 -16.8 379.82 24.14"/></g><g class="cls-2"><polygon class="cls-3" points="1414.82 38.14 1421.19 -54.77 1427.56 -147.69 1504.84 -95.71 1582.12 -43.74 1498.47 -2.8 1414.82 38.14"/></g><g class="cls-4"><g class="cls-2"><circle class="cls-3" cx="169.94" cy="443.66" r="93"/><circle class="cls-3" cx="417.37" cy="394.79" r="93"/><circle class="cls-3" cx="645.12" cy="82.72" r="93"/><circle class="cls-3" cx="165.83" cy="-16.54" r="93"/><rect class="cls-3" x="286.13" y="38.51" width="200.71" height="204.2" transform="translate(123.4 -175.51) rotate(30.24)"/><rect class="cls-3" x="732.19" y="133.25" width="200.71" height="204.2" transform="translate(332.6 -470.75) rotate(38.92)"/><polygon class="cls-3" points="592.01 494.63 618.73 405.41 645.45 316.19 709.35 383.94 773.26 451.68 682.64 473.16 592.01 494.63"/><polygon class="cls-3" points="32.42 278.34 38.79 185.43 45.16 92.51 122.44 144.48 199.72 196.46 116.07 237.4 32.42 278.34"/></g><path class="cls-5" d="M1014.9,153.55h-7.7l2.9-33.7h8.45l4.7,12.2c.8,2,1.49,3.9,2,5.6s.94,2.9,1.1,3.6l.25,1a90.72,90.72,0,0,1,3.5-10.2l4.75-12.2h8.45l3.5,33.7h-7.7l-1.25-13.05-.65-9.85q-1.29,3.75-3.6,9.85l-4.75,12.7h-4.55l-4.7-12.7q-1.14-3.09-1.95-5.55c-.53-1.63-.88-2.76-1.05-3.4l-.25-.9q0,3.56-.45,9.85Z"/><path class="cls-5" d="M1057.3,153.55h-8l11.25-33.7h9.7l11.25,33.7h-8.25l-2-6.9h-11.8Zm4.25-14.3-.35,1.2h8.1l-.35-1.2c-1-3.26-1.76-6.05-2.37-8.35s-1-3.78-1.13-4.45l-.2-1A138.88,138.88,0,0,1,1061.55,139.25Z"/><path class="cls-5" d="M1092.3,153.55h-7.7v-33.7h11.65a13.3,13.3,0,0,1,9.08,3,9.89,9.89,0,0,1,3.42,7.8q0,7.2-6.15,9.95l8.55,13H1102l-7.3-11.7h-2.35Zm3.8-27.45h-3.8v9.5H1096q5,0,5-4.9a4.4,4.4,0,0,0-1.3-3.37A5,5,0,0,0,1096.1,126.1Z"/><path class="cls-5" d="M1139,152.05c-2,1.27-5,1.9-8.8,1.9a17.16,17.16,0,0,1-12.37-4.77,16.38,16.38,0,0,1-5-12.38,17,17,0,0,1,4.83-12.55q4.81-4.84,12.57-4.85c3.8,0,6.72.64,8.75,1.9v7.4a15.68,15.68,0,0,0-8.35-2.3,9.09,9.09,0,0,0-6.8,2.83,10.4,10.4,0,0,0-2.75,7.57,9.94,9.94,0,0,0,2.75,7.38,9.63,9.63,0,0,0,7.1,2.72,13.46,13.46,0,0,0,8-2.4Z"/><path class="cls-5" d="M1175,136.6q0,7.76-4.47,12.53t-11.93,4.77q-7.5,0-11.95-4.75t-4.45-12.55q0-7.74,4.48-12.52t11.92-4.78q7.5,0,12,4.75T1175,136.6Zm-22.35-7.52a14,14,0,0,0,0,15,7.78,7.78,0,0,0,11.9,0,14,14,0,0,0,0-15,7.76,7.76,0,0,0-11.9,0Z"/><path class="cls-5" d="M1196.2,153.55h-8l11.25-33.7h9.7l11.25,33.7h-8.25l-2-6.9h-11.8Zm4.25-14.3-.35,1.2h8.1l-.35-1.2c-1-3.26-1.76-6.05-2.37-8.35s-1-3.78-1.13-4.45l-.2-1A142,142,0,0,1,1200.45,139.25Z"/><path class="cls-5" d="M1231.2,153.55h-7.7v-33.7H1232l7.85,14q1.65,3,2.87,5.53a36.21,36.21,0,0,1,1.58,3.62l.4,1.1a81.55,81.55,0,0,1-.5-10.25v-14h7.7v33.7h-8.45l-8.05-14a58.59,58.59,0,0,1-2.82-5.32c-.82-1.75-1.38-3-1.68-3.88l-.4-1.25a64.31,64.31,0,0,1,.75,10.45Z"/><path class="cls-5" d="M1263.05,153.55h-8l11.25-33.7h9.7l11.25,33.7H1279l-2-6.9h-11.8Zm4.25-14.3-.35,1.2h8.1l-.35-1.2c-1-3.26-1.76-6.05-2.38-8.35s-1-3.78-1.12-4.45l-.2-1A142,142,0,0,1,1267.3,139.25Z"/><path class="cls-5" d="M1310.5,153.55h-20.15v-33.7h7.7v27h12.45Z"/><path class="cls-5" d="M1321.7,153.55H1314v-33.7h7.7Zm-.7-36.05h-6l4.3-8.85h7.3Z"/><path class="cls-5" d="M1349.9,126.05h-8.2v27.5H1334v-27.5h-8.25v-6.2h24.2Z"/><path class="cls-5" d="M1361.6,153.55h-7.7v-33.7h7.7Z"/><path class="cls-5" d="M1392.25,152.05q-3.06,1.9-8.8,1.9a17.19,17.19,0,0,1-12.38-4.77,16.37,16.37,0,0,1-5-12.38,17,17,0,0,1,4.82-12.55q4.83-4.84,12.58-4.85c3.8,0,6.71.64,8.75,1.9v7.4a15.7,15.7,0,0,0-8.35-2.3,9.09,9.09,0,0,0-6.8,2.83,10.36,10.36,0,0,0-2.75,7.57,9.91,9.91,0,0,0,2.75,7.38,9.63,9.63,0,0,0,7.1,2.72,13.48,13.48,0,0,0,8-2.4Z"/><path class="cls-5" d="M1428.29,136.6q0,7.76-4.47,12.53t-11.92,4.77q-7.5,0-12-4.75t-4.45-12.55q0-7.74,4.47-12.52t11.93-4.78q7.5,0,11.94,4.75T1428.29,136.6ZM1406,129.08a14,14,0,0,0,0,15,7.76,7.76,0,0,0,11.89,0,14,14,0,0,0,0-15,7.75,7.75,0,0,0-11.89,0Z"/><path class="cls-5" d="M1045,207.55h-7.7V195.2l-11.5-21.35h9l2.05,4.9c1.06,2.54,1.95,4.7,2.65,6.5s1.15,3,1.35,3.5l.25.8q.49-2.25,4.4-10.8l2.2-4.9h9L1045,195.15Z"/><path class="cls-5" d="M1077.53,207.55h-7.7l2.9-33.7h8.45l4.7,12.2c.8,2,1.48,3.9,2,5.6s.93,2.9,1.1,3.6l.25,1a88.68,88.68,0,0,1,3.5-10.2l4.75-12.2H1106l3.5,33.7h-7.7l-1.25-13.05-.65-9.85q-1.31,3.75-3.6,9.85l-4.75,12.7H1087l-4.7-12.7q-1.15-3.09-2-5.55c-.54-1.63-.89-2.76-1-3.4l-.25-.9q0,3.56-.45,9.85Z"/><path class="cls-5" d="M1134.93,207.55h-21v-33.7h20.75V180h-13v7.65h11.6v6.1h-11.6v7.65h13.2Z"/><path class="cls-5" d="M1162.38,180.05h-8.2v27.5h-7.75v-27.5h-8.25v-6.2h24.2Z"/><path class="cls-5" d="M1197.42,190.6q0,7.76-4.47,12.53T1181,207.9q-7.5,0-12-4.75t-4.46-12.55q0-7.74,4.48-12.52T1181,173.3q7.5,0,11.94,4.75T1197.42,190.6Zm-22.34-7.52a14,14,0,0,0,0,15,7.76,7.76,0,0,0,11.89,0,14,14,0,0,0,0-15,7.75,7.75,0,0,0-11.89,0Z"/><path class="cls-5" d="M1212.92,207.55h-11.5v-33.7H1213a17.18,17.18,0,0,1,12.45,4.68,15.47,15.47,0,0,1,4.86,11.62q0,8.1-4.78,12.75T1212.92,207.55Zm-.15-27.35h-3.44v21.05h3.5a9,9,0,0,0,7.17-2.9q2.52-2.9,2.52-8.2a10.14,10.14,0,0,0-2.55-7.22A9.35,9.35,0,0,0,1212.77,180.2Z"/><path class="cls-5" d="M1265.88,190.6q0,7.76-4.48,12.53t-11.92,4.77q-7.5,0-12-4.75t-4.45-12.55q0-7.74,4.47-12.52t11.93-4.78q7.5,0,11.94,4.75T1265.88,190.6Zm-22.35-7.52a14,14,0,0,0,0,15,7.76,7.76,0,0,0,11.89,0,14,14,0,0,0,0-15,7.75,7.75,0,0,0-11.89,0Z"/><path class="cls-5" d="M1290,207.55h-20.15v-33.7h7.7v27H1290Z"/><path class="cls-5" d="M1324.57,190.6q0,7.76-4.47,12.53t-11.93,4.77q-7.5,0-12-4.75t-4.45-12.55q0-7.74,4.48-12.52t11.92-4.78q7.5,0,11.95,4.75T1324.57,190.6Zm-22.35-7.52a14,14,0,0,0,0,15,7.78,7.78,0,0,0,11.9,0,14,14,0,0,0,0-15,7.76,7.76,0,0,0-11.9,0Z"/><path class="cls-5" d="M1357.62,204.45q-4.8,3.51-12.1,3.5-8.1,0-13.15-4.65t-5-12.65q0-7.89,5.28-12.65a19.26,19.26,0,0,1,13.37-4.75,21.55,21.55,0,0,1,9.85,2.1v7.7a19.61,19.61,0,0,0-9.85-2.75,9.69,9.69,0,0,0-10.35,10.35,10.31,10.31,0,0,0,2.75,7.55,10,10,0,0,0,7.5,2.8,14.05,14.05,0,0,0,4.25-.65V194h-5.45v-6.55h12.95Z"/><path class="cls-5" d="M1370.82,207.55h-7.7v-33.7h7.7Zm-.7-36.05h-6l4.3-8.85h7.3Z"/><path class="cls-5" d="M1382.52,207.55h-8l11.25-33.7h9.7l11.25,33.7h-8.25l-2.05-6.9h-11.8Zm4.25-14.3-.35,1.2h8.1l-.35-1.2c-1-3.26-1.75-6.05-2.37-8.35s-1-3.78-1.13-4.45l-.2-1A138.88,138.88,0,0,1,1386.77,193.25Z"/><path class="cls-5" d="M1034,234h-3.44v8.18h-2.67V219.91h5.84a8.82,8.82,0,0,1,6.09,2,6.63,6.63,0,0,1,2.23,5.16,6.35,6.35,0,0,1-2.21,4.94A8.54,8.54,0,0,1,1034,234Zm-.24-11.78h-3.2v9.5H1034a5.56,5.56,0,0,0,3.92-1.3,4.3,4.3,0,0,0,1.42-3.32,4.57,4.57,0,0,0-1.45-3.56A5.92,5.92,0,0,0,1033.76,222.19Z"/><path class="cls-5" d="M1046.54,242.15h-2.88l7.76-22.24h3.7l7.62,22.24h-2.87l-1.95-5.84h-9.41Zm3.16-9.37-.43,1.26h7.89l-.43-1.29-3.46-10.69Q1052.87,223.47,1049.7,232.78Z"/><path class="cls-5" d="M1071.48,233.38h-3.2v8.77h-2.67V219.91h5.58a8.42,8.42,0,0,1,5.85,1.82,6.44,6.44,0,0,1,2,5,6.92,6.92,0,0,1-1.22,3.93,6.11,6.11,0,0,1-3.27,2.28l5.84,9.2h-3.2l-5.44-8.77Zm-.13-11.16h-3.07v8.88h3.37a4.61,4.61,0,0,0,3.48-1.24,4.38,4.38,0,0,0,1.2-3.18Q1076.33,222.23,1071.35,222.22Z"/><path class="cls-5" d="M1084.35,242.15h-2.87l7.76-22.24h3.69l7.63,22.24h-2.87l-2-5.84h-9.41Zm3.17-9.37-.43,1.26H1095l-.43-1.29-3.47-10.69Q1090.69,223.47,1087.52,232.78Z"/><path class="cls-5" d="M1131.39,242.15h-6.74V219.91h6.6a11.13,11.13,0,0,1,8.07,3.05,10.53,10.53,0,0,1,3.15,7.91,11.56,11.56,0,0,1-2.92,8C1137.61,241.08,1134.88,242.15,1131.39,242.15Zm-.17-19.86h-3.86v17.52h4a7.62,7.62,0,0,0,6.24-2.56,9.66,9.66,0,0,0,2.11-6.38,8.53,8.53,0,0,0-2.36-6.11A8.06,8.06,0,0,0,1131.22,222.29Z"/><path class="cls-5" d="M1148.51,242.15h-2.67V219.91h2.67Z"/><path class="cls-5" d="M1154.45,242.15h-2.87l7.75-22.24h3.7l7.62,22.24h-2.87l-1.94-5.84h-9.41Zm3.17-9.37-.43,1.26h7.89l-.43-1.29-3.47-10.69Q1160.79,223.47,1157.62,232.78Z"/><path class="cls-5" d="M1190.88,240.4a11.1,11.1,0,0,1-6.89,2,11.35,11.35,0,0,1-8.29-3.06,11.12,11.12,0,0,1-3.13-8.36,11.39,11.39,0,0,1,3.12-8.27,10.52,10.52,0,0,1,7.87-3.22,12.68,12.68,0,0,1,6.5,1.52v2.87a11.23,11.23,0,0,0-6.27-1.78,8,8,0,0,0-6.07,2.43,10.13,10.13,0,0,0,0,12.93,8.49,8.49,0,0,0,6.37,2.36,9.65,9.65,0,0,0,4.16-.89V232h-4.88v-2.34h7.55V240.3h0Z"/><path class="cls-5" d="M1197.48,242.15h-2.67V219.91h3.37l5.57,9.37,5.65,9.64c-.09-2.13-.14-5.34-.14-9.6v-9.41h2.68v22.24h-3.37l-5.58-9.3c-1.12-1.87-2.15-3.62-3.1-5.23s-1.61-2.78-2-3.49l-.56-1q.17,3.44.16,9.67Z"/><path class="cls-5" d="M1235.2,230.93a12.34,12.34,0,0,1-2.69,8.37,10,10,0,0,1-14.53,0,14.2,14.2,0,0,1,0-16.7,10.18,10.18,0,0,1,14.62,0Q1235.21,225.65,1235.2,230.93Zm-17.16,0a10.06,10.06,0,0,0,2,6.54,6.41,6.41,0,0,0,5.23,2.41,6.32,6.32,0,0,0,5.26-2.38,10.39,10.39,0,0,0,1.86-6.57,10.26,10.26,0,0,0-1.88-6.56,7,7,0,0,0-10.54,0A10.25,10.25,0,0,0,1218,230.93Z"/><path class="cls-5" d="M1251.34,236.25a5.45,5.45,0,0,1-2,4.53,8.08,8.08,0,0,1-5.19,1.6,11.55,11.55,0,0,1-5.93-1.42v-2.87a9.46,9.46,0,0,0,5.87,1.82,5.27,5.27,0,0,0,3.27-.92,3.2,3.2,0,0,0,1.18-2.68,2.89,2.89,0,0,0-.28-1.3,2.83,2.83,0,0,0-.92-1.06,10.79,10.79,0,0,0-1.22-.79c-.39-.21-.91-.47-1.57-.78l-.59-.26q-1.42-.63-2.16-1a14,14,0,0,1-1.75-1.17,4.8,4.8,0,0,1-1.47-1.8,5.71,5.71,0,0,1-.46-2.38,5.35,5.35,0,0,1,2-4.44,8.05,8.05,0,0,1,5.1-1.6,10.58,10.58,0,0,1,4.89,1v2.8a8.59,8.59,0,0,0-4.82-1.32,5,5,0,0,0-3.2.94,3,3,0,0,0-1.19,2.46,3.12,3.12,0,0,0,.31,1.42,3.2,3.2,0,0,0,1.11,1.17,13.57,13.57,0,0,0,1.35.83c.38.18,1,.45,1.75.8s1.32.59,1.72.78a13.79,13.79,0,0,1,1.53.89,6.2,6.2,0,0,1,1.42,1.19,5.53,5.53,0,0,1,.86,1.52A5.39,5.39,0,0,1,1251.34,236.25Z"/><path class="cls-5" d="M1267.67,222.25h-6v19.9H1259v-19.9h-6v-2.34h14.68Z"/><path class="cls-5" d="M1272.89,242.15h-2.67V219.91h2.67Z"/><path class="cls-5" d="M1293.28,241a9.82,9.82,0,0,1-5.61,1.39,11.12,11.12,0,0,1-8.15-3.09,11.24,11.24,0,0,1-3.13-8.4,10.85,10.85,0,0,1,11.18-11.32,11.81,11.81,0,0,1,5.65,1.19v2.74a14.65,14.65,0,0,0-2.61-1.09,11.38,11.38,0,0,0-3-.33,8.07,8.07,0,0,0-6,2.44,8.75,8.75,0,0,0-2.39,6.37,9,9,0,0,0,2.38,6.54,8.37,8.37,0,0,0,6.3,2.44,8.76,8.76,0,0,0,5.41-1.68Z"/><path class="cls-5" d="M1297.87,242.15H1295l7.75-22.24h3.7l7.62,22.24h-2.87l-2-5.84h-9.4Zm3.17-9.37-.43,1.26h7.88l-.43-1.29-3.46-10.69Q1304.21,223.47,1301,232.78Z"/><path class="cls-5" d="M1322.82,233.38h-3.21v8.77h-2.67V219.91h5.58a8.46,8.46,0,0,1,5.86,1.82,6.43,6.43,0,0,1,2,5,6.92,6.92,0,0,1-1.22,3.93,6.11,6.11,0,0,1-3.27,2.28l5.85,9.2h-3.21l-5.44-8.77Zm-.14-11.16h-3.07v8.88H1323a4.61,4.61,0,0,0,3.48-1.24,4.39,4.39,0,0,0,1.21-3.18C1327.67,223.71,1326,222.22,1322.68,222.22Z"/><path class="cls-5" d="M1369.57,242.15h-12.14V219.91h2.67v19.83h9.47Z"/><path class="cls-5" d="M1373.83,242.15H1371l7.75-22.24h3.7l7.62,22.24h-2.87l-2-5.84h-9.4Zm3.17-9.37-.43,1.26h7.88l-.43-1.29-3.46-10.69Q1380.17,223.47,1377,232.78Z"/><path class="cls-5" d="M1405.77,236.25a5.45,5.45,0,0,1-2,4.53,8,8,0,0,1-5.18,1.6,11.61,11.61,0,0,1-5.94-1.42v-2.87a9.46,9.46,0,0,0,5.87,1.82,5.23,5.23,0,0,0,3.27-.92,3.2,3.2,0,0,0,1.19-2.68,3,3,0,0,0-.28-1.3,3,3,0,0,0-.93-1.06,10,10,0,0,0-1.22-.79c-.38-.21-.91-.47-1.57-.78l-.59-.26q-1.43-.63-2.16-1a14,14,0,0,1-1.75-1.17,4.8,4.8,0,0,1-1.47-1.8,5.71,5.71,0,0,1-.46-2.38,5.33,5.33,0,0,1,2-4.44,8,8,0,0,1,5.1-1.6,10.57,10.57,0,0,1,4.88,1v2.8a8.59,8.59,0,0,0-4.82-1.32,5,5,0,0,0-3.2.94,3,3,0,0,0-1.19,2.46,3.12,3.12,0,0,0,.32,1.42,3.17,3.17,0,0,0,1.1,1.17,12.52,12.52,0,0,0,1.36.83c.37.18,1,.45,1.74.8s1.32.59,1.72.78a13.76,13.76,0,0,1,1.54.89,6.34,6.34,0,0,1,1.41,1.19,5.53,5.53,0,0,1,.86,1.52A5.39,5.39,0,0,1,1405.77,236.25Z"/><path class="cls-5" d="M1033.76,281.75h-8.12V259.51h6.7a8.8,8.8,0,0,1,5.49,1.58,5.1,5.1,0,0,1,2.07,4.26,5.34,5.34,0,0,1-1.07,3.32,4.63,4.63,0,0,1-2.76,1.76,5.47,5.47,0,0,1,3.15,1.67,5.15,5.15,0,0,1,1.3,3.71,5.59,5.59,0,0,1-1.76,4.31A7.08,7.08,0,0,1,1033.76,281.75Zm-1.42-20h-4v7.59h3.57a6,6,0,0,0,4-1.12,3.68,3.68,0,0,0,1.29-2.91,3.23,3.23,0,0,0-1.21-2.56A5.48,5.48,0,0,0,1032.34,261.79Zm.53,9.87h-4.56v7.82h5a4.83,4.83,0,0,0,3.25-1,3.54,3.54,0,0,0,1.14-2.85,3.61,3.61,0,0,0-1.27-2.94A5.53,5.53,0,0,0,1032.87,271.66Z"/><path class="cls-5" d="M1049.53,273h-3.2v8.77h-2.67V259.51h5.58a8.42,8.42,0,0,1,5.85,1.82,6.44,6.44,0,0,1,2,5,6.92,6.92,0,0,1-1.22,3.93,6.11,6.11,0,0,1-3.27,2.28l5.84,9.2h-3.2L1049.8,273Zm-.13-11.16h-3.07v8.88h3.37a4.61,4.61,0,0,0,3.48-1.24,4.38,4.38,0,0,0,1.2-3.18Q1054.38,261.83,1049.4,261.82Z"/><path class="cls-5" d="M1073.33,281.75h-12.41V259.51h12.24v2.34h-9.57v7.63H1072v2.34h-8.45v7.59h9.74Z"/><path class="cls-5" d="M1092.57,280.63A10,10,0,0,1,1087,282a10.7,10.7,0,0,1-11.29-11.49,10.85,10.85,0,0,1,11.19-11.32,11.74,11.74,0,0,1,5.64,1.19v2.74a14.65,14.65,0,0,0-2.61-1.09,11.35,11.35,0,0,0-3-.33,8.06,8.06,0,0,0-6,2.44,8.72,8.72,0,0,0-2.4,6.37,9,9,0,0,0,2.38,6.54,8.38,8.38,0,0,0,6.3,2.44,8.79,8.79,0,0,0,5.42-1.68Z"/><path class="cls-5" d="M1111.8,281.75h-2.67V271.69h-10.79v10.06h-2.67V259.51h2.67v9.77h10.79v-9.77h2.67Z"/><path class="cls-5" d="M1117.55,281.75h-2.88l7.76-22.24h3.7l7.62,22.24h-2.87l-2-5.84h-9.4Zm3.16-9.37-.43,1.25h7.89l-.43-1.28-3.46-10.69C1124,262.6,1122.83,266.18,1120.71,272.38Z"/><path class="cls-5" d="M1149.49,275.85a5.45,5.45,0,0,1-2,4.53,8.08,8.08,0,0,1-5.19,1.6,11.65,11.65,0,0,1-5.93-1.41v-2.88a9.46,9.46,0,0,0,5.87,1.82,5.19,5.19,0,0,0,3.27-.93,3.16,3.16,0,0,0,1.18-2.67,2.89,2.89,0,0,0-.28-1.3,2.83,2.83,0,0,0-.92-1.06,10.79,10.79,0,0,0-1.22-.79c-.39-.21-.91-.47-1.57-.77-.13-.07-.33-.16-.59-.27q-1.42-.63-2.16-1a14,14,0,0,1-1.75-1.17,4.8,4.8,0,0,1-1.47-1.8,5.71,5.71,0,0,1-.46-2.38,5.33,5.33,0,0,1,2-4.44,8,8,0,0,1,5.09-1.6,10.58,10.58,0,0,1,4.89,1v2.8a8.59,8.59,0,0,0-4.82-1.32,5,5,0,0,0-3.2.94,3,3,0,0,0-1.19,2.46,3.12,3.12,0,0,0,.32,1.42,3.08,3.08,0,0,0,1.1,1.17,13.57,13.57,0,0,0,1.35.83c.38.18,1,.45,1.75.8s1.32.59,1.72.78a13.79,13.79,0,0,1,1.53.89,6.2,6.2,0,0,1,1.42,1.19,5.53,5.53,0,0,1,.86,1.52A5.39,5.39,0,0,1,1149.49,275.85Z"/><path class="cls-5" d="M1172.72,281.75h-12.41V259.51h12.25v2.34H1163v7.63h8.44v2.34H1163v7.59h9.73Z"/><path class="cls-5" d="M1178.69,281.75H1176V259.51h3.37l5.57,9.37,5.65,9.64c-.09-2.13-.13-5.34-.13-9.6v-9.41h2.67v22.24h-3.37l-5.57-9.3c-1.13-1.87-2.16-3.62-3.11-5.23l-2-3.48-.56-1q.17,3.44.16,9.67Z"/><path class="cls-5" d="M1216.78,281.75h-12.15V259.51h2.67v19.83h9.48Z"/><path class="cls-5" d="M1238.55,270.53a12.39,12.39,0,0,1-2.68,8.37,10,10,0,0,1-14.54,0,12.21,12.21,0,0,1-2.74-8.35,12.34,12.34,0,0,1,2.69-8.35,10.18,10.18,0,0,1,14.62,0Q1238.56,265.25,1238.55,270.53Zm-17.16,0a10.06,10.06,0,0,0,2,6.54,6.42,6.42,0,0,0,5.23,2.41,6.32,6.32,0,0,0,5.26-2.38,12.43,12.43,0,0,0,0-13.13,7,7,0,0,0-10.55,0A10.31,10.31,0,0,0,1221.39,270.53Z"/><path class="cls-5" d="M1254.69,275.85a5.45,5.45,0,0,1-2,4.53,8,8,0,0,1-5.18,1.6,11.71,11.71,0,0,1-5.94-1.41v-2.88a9.46,9.46,0,0,0,5.87,1.82,5.17,5.17,0,0,0,3.27-.93,3.17,3.17,0,0,0,1.19-2.67,3,3,0,0,0-.28-1.3,3,3,0,0,0-.93-1.06,10,10,0,0,0-1.22-.79c-.38-.21-.91-.47-1.57-.77-.13-.07-.33-.16-.59-.27q-1.42-.63-2.16-1a14,14,0,0,1-1.75-1.17,4.8,4.8,0,0,1-1.47-1.8,5.71,5.71,0,0,1-.46-2.38,5.36,5.36,0,0,1,2-4.44,8,8,0,0,1,5.1-1.6,10.57,10.57,0,0,1,4.88,1v2.8a8.59,8.59,0,0,0-4.82-1.32,5,5,0,0,0-3.2.94,3,3,0,0,0-1.19,2.46,3.12,3.12,0,0,0,.32,1.42,3.25,3.25,0,0,0,1.1,1.17,12.52,12.52,0,0,0,1.36.83c.37.18,1,.45,1.75.8s1.32.59,1.71.78a13.76,13.76,0,0,1,1.54.89,6.42,6.42,0,0,1,1.42,1.19,5.79,5.79,0,0,1,.85,1.52A5.2,5.2,0,0,1,1254.69,275.85Z"/><path class="cls-5" d="M1281.46,280.63a10,10,0,0,1-5.62,1.39,10.7,10.7,0,0,1-11.28-11.49,10.85,10.85,0,0,1,11.19-11.32,11.74,11.74,0,0,1,5.64,1.19v2.74a14.65,14.65,0,0,0-2.61-1.09,11.35,11.35,0,0,0-3-.33,8.06,8.06,0,0,0-6,2.44,8.72,8.72,0,0,0-2.4,6.37,9,9,0,0,0,2.38,6.54,8.37,8.37,0,0,0,6.3,2.44,8.81,8.81,0,0,0,5.42-1.68Z"/><path class="cls-5" d="M1300.79,273.3c0,2.87-.72,5-2.16,6.51a9.28,9.28,0,0,1-12,.05q-2.14-2.16-2.15-6.29V259.51h2.68v14a6.13,6.13,0,0,0,1.46,4.52,5.37,5.37,0,0,0,3.95,1.45q5.51,0,5.51-6.14V259.51h2.67Z"/><path class="cls-5" d="M1307.89,281.75h-2.68V259.51h2.68Z"/><path class="cls-5" d="M1319.07,281.75h-6.73V259.51h6.6a11.13,11.13,0,0,1,8.07,3.05,10.53,10.53,0,0,1,3.15,7.91,11.56,11.56,0,0,1-2.92,8C1325.29,280.68,1322.57,281.75,1319.07,281.75Zm-.16-19.86h-3.86v17.52h4a7.62,7.62,0,0,0,6.24-2.56,9.72,9.72,0,0,0,2.11-6.38,8.53,8.53,0,0,0-2.36-6.11A8.06,8.06,0,0,0,1318.91,261.89Z"/><path class="cls-5" d="M1334.81,281.75h-2.87l7.76-22.24h3.69l7.63,22.24h-2.87l-2-5.84h-9.41Zm3.17-9.37-.43,1.25h7.89l-.43-1.28-3.47-10.69Q1341.15,263.07,1338,272.38Z"/><path class="cls-5" d="M1360.62,281.75h-6.73V259.51h6.6a11.17,11.17,0,0,1,8.07,3.05,10.53,10.53,0,0,1,3.15,7.91,11.6,11.6,0,0,1-2.92,8C1366.84,280.68,1364.12,281.75,1360.62,281.75Zm-.17-19.86h-3.86v17.52h4a7.6,7.6,0,0,0,6.23-2.56,9.66,9.66,0,0,0,2.11-6.38,8.53,8.53,0,0,0-2.35-6.11A8.1,8.1,0,0,0,1360.45,261.89Z"/><path class="cls-5" d="M1393.88,270.53a12.34,12.34,0,0,1-2.69,8.37,10,10,0,0,1-14.53,0,14.2,14.2,0,0,1-.05-16.7,10.18,10.18,0,0,1,14.62,0Q1393.89,265.25,1393.88,270.53Zm-17.16,0a10.06,10.06,0,0,0,2,6.54,6.41,6.41,0,0,0,5.23,2.41,6.32,6.32,0,0,0,5.26-2.38,10.39,10.39,0,0,0,1.86-6.57,10.26,10.26,0,0,0-1.88-6.56,7,7,0,0,0-10.54,0A10.25,10.25,0,0,0,1376.72,270.53Z"/><path class="cls-5" d="M1410,275.85a5.45,5.45,0,0,1-2,4.53,8.08,8.08,0,0,1-5.19,1.6,11.71,11.71,0,0,1-5.94-1.41v-2.88a9.51,9.51,0,0,0,5.88,1.82,5.21,5.21,0,0,0,3.27-.93,3.16,3.16,0,0,0,1.18-2.67,2.89,2.89,0,0,0-.28-1.3,2.83,2.83,0,0,0-.92-1.06,10.79,10.79,0,0,0-1.22-.79c-.39-.21-.91-.47-1.57-.77-.13-.07-.33-.16-.59-.27-1-.42-1.67-.76-2.17-1a14.71,14.71,0,0,1-1.74-1.17,4.71,4.71,0,0,1-1.47-1.8,5.71,5.71,0,0,1-.46-2.38,5.35,5.35,0,0,1,2-4.44,8.05,8.05,0,0,1,5.1-1.6,10.58,10.58,0,0,1,4.89,1v2.8a8.59,8.59,0,0,0-4.82-1.32,5,5,0,0,0-3.2.94,3,3,0,0,0-1.19,2.46,3.12,3.12,0,0,0,.31,1.42,3.2,3.2,0,0,0,1.11,1.17,13.57,13.57,0,0,0,1.35.83c.38.18,1,.45,1.75.8s1.32.59,1.72.78a13.79,13.79,0,0,1,1.53.89,6.2,6.2,0,0,1,1.42,1.19,5.53,5.53,0,0,1,.86,1.52A5.39,5.39,0,0,1,1410,275.85Z"/><path class="cls-5" d="M1040.2,321.35h-12.41V299.11H1040v2.34h-9.57v7.63h8.45v2.34h-8.45V319h9.73Z"/><path class="cls-5" d="M1046.18,321.35h-2.68V299.11h3.37l5.58,9.37,5.64,9.64c-.09-2.13-.13-5.34-.13-9.6v-9.41h2.67v22.24h-3.37l-5.57-9.3c-1.13-1.87-2.16-3.62-3.11-5.23s-1.61-2.78-2-3.49l-.56-1q.16,3.44.17,9.67Z"/><path class="cls-5" d="M1080.56,321.35h-2.68l1.62-22.24h3.4l2.94,8.12,3.56,10.36q1.92-5.41,3.76-10.36l3.07-8.12h3.4l1.95,22.24h-2.68l-.75-8.77-.8-9.87q-1.74,4.88-3.59,9.87l-3.11,8.28h-2.54l-2.93-8.28-3.37-9.67c0,.85-.21,4.08-.63,9.67Z"/><path class="cls-5" d="M1121.81,312.91c0,2.86-.72,5-2.17,6.5a9.28,9.28,0,0,1-12,0c-1.43-1.45-2.14-3.54-2.14-6.29V299.11h2.67v14a6.13,6.13,0,0,0,1.47,4.52,5.35,5.35,0,0,0,3.94,1.45c3.68,0,5.51-2.05,5.51-6.14V299.11h2.68Z"/><path class="cls-5" d="M1128.7,321.35H1126V299.11h3.37l5.57,9.37,5.65,9.64c-.09-2.13-.14-5.34-.14-9.6v-9.41h2.68v22.24h-3.37l-5.58-9.3c-1.12-1.87-2.15-3.62-3.1-5.23s-1.62-2.78-2-3.49l-.56-1q.17,3.44.16,9.67Z"/><path class="cls-5" d="M1150.28,321.35h-2.67V299.11h2.67Z"/><path class="cls-5" d="M1170.68,320.23a9.87,9.87,0,0,1-5.61,1.39,11.1,11.1,0,0,1-8.15-3.09,11.25,11.25,0,0,1-3.14-8.4A10.87,10.87,0,0,1,1165,298.81a11.74,11.74,0,0,1,5.64,1.19v2.74a14.36,14.36,0,0,0-2.61-1.09,11.3,11.3,0,0,0-3-.33,8.06,8.06,0,0,0-6,2.44,8.71,8.71,0,0,0-2.39,6.37,9,9,0,0,0,2.37,6.54,8.41,8.41,0,0,0,6.31,2.44,8.78,8.78,0,0,0,5.41-1.68Z"/><path class="cls-5" d="M1176.65,321.35H1174V299.11h2.67Z"/><path class="cls-5" d="M1187.21,313.17h-3.43v8.18h-2.68V299.11H1187a8.77,8.77,0,0,1,6.08,2,6.59,6.59,0,0,1,2.23,5.16,6.35,6.35,0,0,1-2.21,4.94A8.5,8.5,0,0,1,1187.21,313.17Zm-.23-11.78h-3.2v9.5h3.43a5.6,5.6,0,0,0,3.93-1.3,4.34,4.34,0,0,0,1.42-3.32,4.58,4.58,0,0,0-1.46-3.56A5.91,5.91,0,0,0,1187,301.39Z"/><path class="cls-5" d="M1201.14,321.35h-2.68V299.11h2.68Z"/><path class="cls-5" d="M1224.6,310.13a12.4,12.4,0,0,1-2.69,8.37,10,10,0,0,1-14.54,0,14.2,14.2,0,0,1,0-16.7,10.18,10.18,0,0,1,14.62,0A12.39,12.39,0,0,1,1224.6,310.13Zm-17.16,0a10.06,10.06,0,0,0,2,6.54,6.42,6.42,0,0,0,5.23,2.41,6.33,6.33,0,0,0,5.27-2.38,12.46,12.46,0,0,0,0-13.13,7,7,0,0,0-10.55,0A10.31,10.31,0,0,0,1207.44,310.13Z"/><path class="cls-5" d="M1240.74,315.45a5.46,5.46,0,0,1-2,4.53,8,8,0,0,1-5.18,1.6,11.71,11.71,0,0,1-5.94-1.41v-2.88a9.51,9.51,0,0,0,5.88,1.82,5.22,5.22,0,0,0,3.26-.92,3.2,3.2,0,0,0,1.19-2.68,2.89,2.89,0,0,0-.28-1.3,3,3,0,0,0-.92-1.06,10,10,0,0,0-1.23-.79q-.57-.32-1.56-.78l-.6-.26q-1.41-.63-2.16-1a14.72,14.72,0,0,1-1.75-1.17,4.8,4.8,0,0,1-1.47-1.8,5.87,5.87,0,0,1-.46-2.38,5.36,5.36,0,0,1,2-4.44,8,8,0,0,1,5.1-1.6,10.57,10.57,0,0,1,4.88,1v2.8a8.56,8.56,0,0,0-4.81-1.32,5,5,0,0,0-3.2.94,3,3,0,0,0-1.19,2.46,3.12,3.12,0,0,0,.31,1.42,3.2,3.2,0,0,0,1.11,1.17,12.51,12.51,0,0,0,1.35.83c.37.18,1,.45,1.75.8s1.32.59,1.71.78a13.76,13.76,0,0,1,1.54.89,6.2,6.2,0,0,1,1.42,1.19,5.79,5.79,0,0,1,.86,1.52A5.39,5.39,0,0,1,1240.74,315.45Z"/><path class="cls-5" d="M1261.29,321.35h-6.73V299.11h6.6a11.13,11.13,0,0,1,8.07,3.05,10.53,10.53,0,0,1,3.15,7.91,11.56,11.56,0,0,1-2.92,8.05C1267.51,320.28,1264.79,321.35,1261.29,321.35Zm-.16-19.86h-3.87V319h4a7.58,7.58,0,0,0,6.23-2.56,9.67,9.67,0,0,0,2.12-6.38,8.53,8.53,0,0,0-2.36-6.11A8.09,8.09,0,0,0,1261.13,301.49Z"/><path class="cls-5" d="M1288,321.35h-12.4V299.11h12.24v2.34h-9.57v7.63h8.45v2.34h-8.45V319H1288Z"/><path class="cls-5" d="M1306.92,321.35h-2.67l1.62-22.24h3.4l2.93,8.12,3.57,10.36q1.9-5.41,3.76-10.36l3.07-8.12h3.4l1.94,22.24h-2.67l-.76-8.77-.79-9.87c-1.17,3.25-2.36,6.54-3.6,9.87l-3.1,8.28h-2.54l-2.94-8.28-3.36-9.67c0,.85-.21,4.08-.63,9.67Z"/><path class="cls-5" d="M1344.35,321.35h-12.41V299.11h12.24v2.34h-9.57v7.63h8.45v2.34h-8.45V319h9.74Zm-4.62-24h-2.28l3.27-5.15h3.1Z"/><path class="cls-5" d="M1349.56,321.35h-3.17l7.16-11.22-6.76-11h3.13l5.12,8.61,5.11-8.61h3.17l-6.73,11,7.46,11.22h-3.14l-5.81-8.94Z"/><path class="cls-5" d="M1369.92,321.35h-2.67V299.11h2.67Z"/><path class="cls-5" d="M1390.31,320.23a9.82,9.82,0,0,1-5.61,1.39,11.12,11.12,0,0,1-8.15-3.09,11.24,11.24,0,0,1-3.13-8.4,10.85,10.85,0,0,1,11.18-11.32,11.81,11.81,0,0,1,5.65,1.19v2.74a14.65,14.65,0,0,0-2.61-1.09,11.38,11.38,0,0,0-3-.33,8.09,8.09,0,0,0-6,2.44,8.75,8.75,0,0,0-2.39,6.37,9,9,0,0,0,2.38,6.54,8.37,8.37,0,0,0,6.3,2.44,8.76,8.76,0,0,0,5.41-1.68Z"/><path class="cls-5" d="M1412.42,310.13a12.34,12.34,0,0,1-2.69,8.37,10,10,0,0,1-14.53,0,14.2,14.2,0,0,1,0-16.7,10.18,10.18,0,0,1,14.62,0C1411.54,303.83,1412.42,306.61,1412.42,310.13Zm-17.16,0a10.06,10.06,0,0,0,2,6.54,6.42,6.42,0,0,0,5.23,2.41,6.32,6.32,0,0,0,5.26-2.38,10.39,10.39,0,0,0,1.86-6.57,10.26,10.26,0,0,0-1.88-6.56,7,7,0,0,0-10.54,0A10.31,10.31,0,0,0,1395.26,310.13Z"/><ellipse class="cls-6" cx="94.97" cy="235.99" rx="7.46" ry="10.83" transform="translate(-158.23 211.5) rotate(-62.55)"/><path class="cls-7" d="M174.58,289.57l-11.49,89.16-33.74-2.12,18.32-100.42,39.84-.21L217,355l-27.65,17.4s-15.44-32.69-17.59-38.64l-2.15-5.94"/><polygon class="cls-8" points="222.08 370.25 212.75 357.93 198.03 367.27 193.72 396.15 222.08 370.25"/><polygon class="cls-8" points="158.78 377.89 158.07 397 122.17 396.57 140.12 377.04 158.78 377.89"/><path class="cls-9" d="M174.86,236.63s3.17-3.81-8.85,9.52a36.77,36.77,0,0,1-16.51,10.57c-.69.22-1.38.42-2.06.61-7.31,2-14.6,2.11-20.64,2.78-11.38,1.27-31.62-13.33-31.62-13.33l8.22-15.87s2.53.64,19.61,5.08,15.81-.63,30.35-20.31,27.2-11.42,27.2-11.42,8.22,27.5,6.95,64.95V276l-39.84-.64s.42-18,.21-17.13"/><ellipse class="cls-6" cx="172.12" cy="188.6" rx="17.07" ry="17.14"/><ellipse class="cls-10" cx="177.4" cy="184.7" rx="10.55" ry="14.79" transform="translate(-75.23 142.71) rotate(-36.72)"/><ellipse class="cls-11" cx="67.97" cy="199.1" rx="34.97" ry="35.1"/><rect class="cls-12" x="304.73" y="269.42" width="49.34" height="97.04"/><polygon class="cls-8" points="305.55 388.25 354.07 388.25 332.69 367.69 306.38 366.87 305.55 388.25"/><ellipse class="cls-13" cx="388.61" cy="215.14" rx="13.16" ry="9.05" transform="translate(-1.53 427.49) rotate(-57.53)"/><path class="cls-14" d="M318.09,251.32s20.48,22.21,43.33,25.5,36.24-50.17,36.24-50.17L374,214.32l-16.55,16.44-22.06-25.49s-32.3,0-31.51,34.54,1.54,35.47,1.54,35.47l49.43-.42"/><circle class="cls-13" cx="321.59" cy="190.88" r="19.74"/><circle class="cls-10" cx="301.44" cy="177.31" r="12.34"/><ellipse class="cls-10" cx="312.54" cy="184.71" rx="14.39" ry="10.28" transform="translate(-23.14 322.97) rotate(-52.97)"/><polygon class="cls-15" points="440.59 202.33 400.46 202.83 360.33 203.32 379.96 168.32 399.6 133.32 420.09 167.82 440.59 202.33"/><path class="cls-16" d="M892.23,91.5l-15.64-7s-56.33-9.22-59-9.83c-13.25-3.13-25,7.75-5.07,16.35s59.82,15.45,65,14.64S891.46,99.48,892.23,91.5Z"/><path class="cls-16" d="M866.13,71.59S831,60.71,824.48,64.44c-3.47,2-6.83,8.65-.4,10.43s46.32,8.66,46.32,8.66l6.45-4.66Z"/><ellipse class="cls-16" cx="880.78" cy="67.72" rx="16.73" ry="17.16" transform="translate(21.84 274.07) rotate(-17.9)"/><path class="cls-17" d="M879.4,138.59l13.36,97L929,226.07l-8.11-48.71-.14-.16-6-36.71,6.14,36.87c.28.34,1.16,1.36,3.89,4.54,4,4.72,30,29.4,30,29.4l24-25.38L924.49,126.6Z"/><path class="cls-17" d="M914.76,140.49l6,36.71.14.16Z"/><path class="cls-18" d="M920.9,177.36l-.14-.16"/><path class="cls-18" d="M920.9,177.36,929,226.07l-36.25,9.56-13.36-97,45.09-12,54.33,59.32-24,25.38s-26-24.68-30-29.4C922.06,178.72,921.18,177.7,920.9,177.36Z"/><line class="cls-18" x1="914.76" y1="140.49" x2="920.9" y2="177.36"/><polygon class="cls-8" points="989.5 197.29 976 189.19 963.23 202.77 967.23 230.68 989.5 197.29"/><polygon class="cls-8" points="925.44 226.68 929.11 244.5 891.09 256.35 904.25 232.34 925.44 226.68"/><path class="cls-12" d="M928,127.18s-15.16-50.16-40.8-44-9.94,58.61-9.94,58.61Z"/><polygon class="cls-19" points="824.31 165.05 783.48 165.55 742.65 166.06 762.63 130.44 782.61 94.83 803.46 129.94 824.31 165.05"/><ellipse class="cls-20" cx="891.95" cy="312.94" rx="55.37" ry="52.94"/><ellipse class="cls-10" cx="885.35" cy="64.06" rx="10.98" ry="15.23" transform="translate(127.47 526.18) rotate(-35.51)"/><circle class="cls-10" cx="897.57" cy="51.17" r="12.34"/><ellipse class="cls-13" cx="790.64" cy="212.86" rx="11.38" ry="7.61" transform="translate(-17.15 346.62) rotate(-24.47)"/><path class="cls-21" d="M705.91,213.5s-3.35-3.85,9.39,9.62a39.36,39.36,0,0,0,17.52,10.68c.72.22,1.45.42,2.18.61,7.75,2,15.48,2.13,21.88,2.81,12.07,1.28,33.53-13.46,33.53-13.46l-8.72-16s-2.68.64-20.78,5.13-16.77-.64-32.19-20.52-28.84-11.54-28.84-11.54-8.72,27.78-7.38,65.61v6.84l42.25-.64s-.45-18.17-.22-17.31"/><ellipse class="cls-13" cx="708.82" cy="164.99" rx="18.11" ry="17.31"/><ellipse class="cls-10" cx="703.22" cy="161.06" rx="15.23" ry="10.98" transform="translate(120.5 586.38) rotate(-49.03)"/><rect class="cls-12" x="693.62" y="253.16" width="39.38" height="97.04"/><polygon class="cls-8" points="694.36 371.99 738 371.99 718.77 351.43 695.1 350.61 694.36 371.99"/><path class="cls-16" d="M565.78,217.53l-14.25-12.79S494.77,175.57,492.19,174c-13-7.88-29.28-.34-11,15.65s58.34,37,64.12,37.93S562.22,225.76,565.78,217.53Z"/><path class="cls-16" d="M544.85,187.37S511.23,163.73,503,165.44c-4.36.91-10.24,6.86-4,11s46.31,25.13,46.31,25.13l8.46-2.74Z"/><ellipse class="cls-16" cx="561.77" cy="188.29" rx="18.7" ry="19.19"/><path class="cls-10" d="M565.49,169.68c6.79-2,14.41,3.78,17,13a22.79,22.79,0,0,1,.78,4.3c.25,0,.49,0,.73,0a17,17,0,0,1,16.66,14.38,21.87,21.87,0,0,1,2.94-.22c12.29,0,22.26,10.23,22.26,22.85s-10,22.85-22.26,22.85-22.27-10.23-22.27-22.85c0-.85.06-1.68.14-2.5a17.22,17.22,0,0,1-14.39-17.15,17.86,17.86,0,0,1,.14-2.08c-4.11-2-7.68-6.44-9.31-12.17C555.32,180.82,558.7,171.71,565.49,169.68Z"/><path class="cls-22" d="M535.94,263.23,516.8,371.07l41.85,2.29,8.11-54.61-.09-.22,6.24-41.13-6.15,41.35c.19.45.78,1.85,2.58,6.17,2.67,6.4,21.81,41.59,21.81,41.59l34.3-18.74L588,266Z"/><path class="cls-23" d="M572.91,277.4l-6.24,41.13.09.22Z"/><path class="cls-18" d="M566.76,318.75l-.09-.22"/><path class="cls-18" d="M566.76,318.75l-8.11,54.61-41.85-2.29,19.14-107.84L588,266l37.41,81.8-34.3,18.74S572,331.32,569.34,324.92C567.54,320.6,567,319.2,566.76,318.75Z"/><line class="cls-18" x1="572.91" y1="277.4" x2="566.76" y2="318.75"/><polygon class="cls-8" points="632.91 363.53 621.33 350.28 603.07 360.33 597.73 391.4 632.91 363.53"/><polygon class="cls-8" points="554.64 372.78 552.42 393 507.89 392.54 530.15 371.52 554.64 372.78"/><path class="cls-24" d="M591.6,267.8s1.12-58.58-28.27-60.89-30.73,58.94-30.73,58.94Z"/><rect class="cls-25" x="458.21" y="89.25" width="68.84" height="68.84" transform="translate(68.93 403.76) rotate(-47.56)"/></g></svg>