<svg id="Capa_1" data-name="Capa 1" xmlns="http://www.w3.org/2000/svg" xmlns:xlink="http://www.w3.org/1999/xlink" viewBox="0 0 455 1483"><defs><style>.cls-1,.cls-18{fill:none;}.cls-2{clip-path:url(#clip-path);}.cls-3{opacity:0.05;}.cls-4{fill:#0f6343;}.cls-19,.cls-5{fill:#44b28b;}.cls-5{stroke:#44b28b;stroke-width:0.5px;}.cls-11,.cls-12,.cls-13,.cls-14,.cls-15,.cls-16,.cls-18,.cls-19,.cls-20,.cls-21,.cls-24,.cls-25,.cls-5,.cls-6,.cls-7,.cls-8,.cls-9{stroke-miterlimit:10;}.cls-6{fill:#f8eac3;}.cls-11,.cls-12,.cls-13,.cls-14,.cls-15,.cls-16,.cls-18,.cls-20,.cls-21,.cls-24,.cls-25,.cls-6,.cls-7,.cls-8,.cls-9{stroke:#1d1e1c;}.cls-11,.cls-12,.cls-13,.cls-14,.cls-15,.cls-16,.cls-18,.cls-19,.cls-20,.cls-21,.cls-24,.cls-25,.cls-6,.cls-7,.cls-8,.cls-9{stroke-width:2px;}.cls-7{fill:#57a293;}.cls-23,.cls-8{fill:#fff;}.cls-9{fill:#f199b4;}.cls-10{fill:#1d1e1c;}.cls-11{fill:#f2b91a;}.cls-12{fill:#3a407f;}.cls-13{fill:#d2a97d;}.cls-14,.cls-17{fill:#b696c4;}.cls-15{fill:#485aa4;}.cls-16{fill:#f7dac6;}.cls-19{stroke:#1d1d1b;}.cls-20{fill:#00b2d4;}.cls-21,.cls-22{fill:#6eaadc;}.cls-24{fill:#c5d983;}.cls-25{fill:#e73c37;}</style><clipPath id="clip-path"><rect class="cls-1" y="3" width="455" height="1480"/></clipPath></defs><g class="cls-2"><g class="cls-3"><circle class="cls-4" cx="11.12" cy="1287.72" r="93"/><rect class="cls-4" x="98.19" y="1338.25" width="200.71" height="204.2" transform="translate(948.85 194.93) rotate(38.92)"/></g><path class="cls-5" d="M39.53,1268.9h-7l2.65-30.77h7.71l4.29,11.14c.73,1.86,1.36,3.56,1.87,5.12s.86,2.64,1,3.28l.23.92a80.49,80.49,0,0,1,3.19-9.32l4.34-11.14h7.72l3.19,30.77h-7L60.53,1257l-.59-9c-.8,2.29-1.89,5.28-3.29,9l-4.34,11.59H48.16L43.87,1257c-.7-1.89-1.3-3.58-1.78-5.07s-.81-2.53-1-3.1l-.23-.83c0,2.17-.14,5.16-.41,9Z"/><path class="cls-5" d="M78.24,1268.9H70.89l10.28-30.77H90l10.28,30.77H92.76l-1.87-6.3H80.12Zm3.89-13.05-.33,1.09h7.4l-.32-1.09q-1.32-4.49-2.17-7.63c-.56-2.1-.9-3.45-1-4.06l-.19-.91Q85.14,1245.76,82.13,1255.85Z"/><path class="cls-5" d="M110.2,1268.9h-7v-30.77h10.64a12.13,12.13,0,0,1,8.28,2.74,9,9,0,0,1,3.13,7.12q0,6.59-5.61,9.09l7.8,11.82H119l-6.66-10.68H110.2Zm3.47-25.06H110.2v8.67h3.33q4.57,0,4.57-4.47a4,4,0,0,0-1.19-3.08A4.51,4.51,0,0,0,113.67,1243.84Z"/><path class="cls-5" d="M152.8,1267.53q-2.79,1.74-8,1.74a15.68,15.68,0,0,1-11.3-4.36,15,15,0,0,1-4.54-11.3,15.15,15.15,0,0,1,15.89-15.89q5.2,0,8,1.74v6.75a14.31,14.31,0,0,0-7.63-2.1,8.3,8.3,0,0,0-6.2,2.58,9.48,9.48,0,0,0-2.52,6.92,9,9,0,0,0,2.52,6.73,8.8,8.8,0,0,0,6.48,2.49,12.29,12.29,0,0,0,7.35-2.19Z"/><path class="cls-5" d="M185.72,1253.43q0,7.08-4.09,11.43t-10.89,4.36q-6.84,0-10.91-4.33t-4.06-11.46q0-7.08,4.08-11.44a14.21,14.21,0,0,1,10.89-4.36q6.85,0,10.91,4.34T185.72,1253.43Zm-20.41-6.87a12.75,12.75,0,0,0,0,13.74,7.09,7.09,0,0,0,10.86,0,12.75,12.75,0,0,0,0-13.74,7.07,7.07,0,0,0-10.86,0Z"/><path class="cls-5" d="M205.07,1268.9h-7.35L208,1238.13h8.85l10.27,30.77h-7.53l-1.87-6.3H207Zm3.88-13.05-.32,1.09H216l-.32-1.09q-1.32-4.49-2.17-7.63c-.56-2.1-.9-3.45-1-4.06l-.18-.91A129,129,0,0,1,209,1255.85Z"/><path class="cls-5" d="M237,1268.9h-7v-30.77h7.72l7.16,12.74c1,1.8,1.88,3.48,2.63,5.05s1.22,2.67,1.44,3.31l.36,1a75,75,0,0,1-.45-9.36v-12.74h7v30.77h-7.72l-7.35-12.73q-1.45-2.48-2.58-4.87c-.74-1.59-1.25-2.77-1.53-3.53l-.36-1.15a59.5,59.5,0,0,1,.68,9.55Z"/><path class="cls-5" d="M266.11,1268.9h-7.35L269,1238.13h8.85l10.27,30.77h-7.53l-1.87-6.3H268Zm3.88-13.05-.32,1.09h7.4l-.32-1.09q-1.32-4.49-2.17-7.63c-.56-2.1-.9-3.45-1-4.06l-.18-.91A129,129,0,0,1,270,1255.85Z"/><path class="cls-5" d="M309.44,1268.9H291v-30.77h7v24.61h11.37Z"/><path class="cls-5" d="M319.67,1268.9h-7v-30.77h7ZM319,1236H313.5l3.93-8.08h6.66Z"/><path class="cls-5" d="M345.41,1243.79h-7.48v25.11h-7.08v-25.11h-7.53v-5.66h22.09Z"/><path class="cls-5" d="M356.1,1268.9h-7v-30.77h7Z"/><path class="cls-5" d="M384.08,1267.53q-2.77,1.74-8,1.74a15.66,15.66,0,0,1-11.3-4.36,15,15,0,0,1-4.54-11.3,15.14,15.14,0,0,1,15.88-15.89c3.47,0,6.14.58,8,1.74v6.75a14.27,14.27,0,0,0-7.62-2.1,8.31,8.31,0,0,0-6.21,2.58,9.52,9.52,0,0,0-2.51,6.92,9.06,9.06,0,0,0,2.51,6.73,8.8,8.8,0,0,0,6.48,2.49,12.29,12.29,0,0,0,7.35-2.19Z"/><path class="cls-5" d="M417,1253.43q0,7.08-4.09,11.43a14.19,14.19,0,0,1-10.88,4.36q-6.86,0-10.92-4.33t-4.06-11.46q0-7.08,4.09-11.44t10.89-4.36q6.84,0,10.91,4.34T417,1253.43Zm-20.41-6.87a12.75,12.75,0,0,0,0,13.74,7.1,7.1,0,0,0,10.87,0,12.75,12.75,0,0,0,0-13.74,7.08,7.08,0,0,0-10.87,0Z"/><path class="cls-5" d="M67,1318.21H60v-11.27l-10.51-19.5h8.22l1.87,4.47q1.47,3.48,2.42,5.94c.64,1.64,1.05,2.71,1.24,3.2l.23.73q.45-2.05,4-9.87l2-4.47h8.17L67,1306.89Z"/><path class="cls-5" d="M96.71,1318.21h-7l2.65-30.77H100l4.3,11.14q1.09,2.79,1.87,5.11c.51,1.56.85,2.65,1,3.29l.23.91a81,81,0,0,1,3.2-9.31l4.33-11.14h7.72l3.2,30.77h-7l-1.14-11.91-.59-9q-1.19,3.42-3.29,9l-4.33,11.59h-4.16l-4.29-11.59c-.7-1.89-1.3-3.58-1.78-5.07s-.81-2.53-1-3.11l-.23-.82q0,3.24-.41,9Z"/><path class="cls-5" d="M149.12,1318.21H130v-30.77h18.95v5.62H137.07v7h10.59v5.57H137.07v7h12.05Z"/><path class="cls-5" d="M174.19,1293.1H166.7v25.11h-7.08V1293.1h-7.53v-5.66h22.1Z"/><path class="cls-5" d="M206.19,1302.73q0,7.08-4.08,11.44a14.22,14.22,0,0,1-10.89,4.36q-6.85,0-10.92-4.34t-4.06-11.46q0-7.07,4.09-11.43t10.89-4.36q6.84,0,10.91,4.33T206.19,1302.73Zm-20.41-6.87a12.76,12.76,0,0,0,0,13.75,7.1,7.1,0,0,0,10.87,0,12.76,12.76,0,0,0,0-13.75,7.1,7.1,0,0,0-10.87,0Z"/><path class="cls-5" d="M220.34,1318.21h-10.5v-30.77h10.59a15.68,15.68,0,0,1,11.37,4.27,14.11,14.11,0,0,1,4.43,10.61q0,7.4-4.36,11.65T220.34,1318.21Zm-.13-25h-3.15v19.22h3.19a8.19,8.19,0,0,0,6.55-2.65q2.31-2.64,2.31-7.49a9.26,9.26,0,0,0-2.33-6.59A8.55,8.55,0,0,0,220.21,1293.24Z"/><path class="cls-5" d="M268.69,1302.73q0,7.08-4.08,11.44a14.22,14.22,0,0,1-10.89,4.36q-6.85,0-10.91-4.34t-4.07-11.46q0-7.07,4.09-11.43t10.89-4.36q6.84,0,10.91,4.33T268.69,1302.73Zm-20.4-6.87a12.76,12.76,0,0,0,0,13.75,7.09,7.09,0,0,0,10.86,0,12.76,12.76,0,0,0,0-13.75,7.09,7.09,0,0,0-10.86,0Z"/><path class="cls-5" d="M290.75,1318.21h-18.4v-30.77h7v24.61h11.37Z"/><path class="cls-5" d="M322.29,1302.73q0,7.08-4.08,11.44a14.22,14.22,0,0,1-10.89,4.36q-6.85,0-10.91-4.34t-4.07-11.46q0-7.07,4.09-11.43t10.89-4.36q6.84,0,10.91,4.33T322.29,1302.73Zm-20.41-6.87a12.82,12.82,0,0,0,0,13.75,7.1,7.1,0,0,0,10.87,0,12.76,12.76,0,0,0,0-13.75,7.1,7.1,0,0,0-10.87,0Z"/><path class="cls-5" d="M352.47,1315.38a18.26,18.26,0,0,1-11.05,3.2q-7.4,0-12-4.25t-4.61-11.55a14.79,14.79,0,0,1,4.82-11.55,17.56,17.56,0,0,1,12.21-4.34,19.71,19.71,0,0,1,9,1.92v7a18,18,0,0,0-9-2.51,8.85,8.85,0,0,0-9.45,9.45,9.41,9.41,0,0,0,2.51,6.89,9.16,9.16,0,0,0,6.85,2.56,13.23,13.23,0,0,0,3.88-.59v-5.8h-5v-6h11.83Z"/><path class="cls-5" d="M364.52,1318.21h-7v-30.77h7Zm-.64-32.92h-5.52l3.93-8.08H369Z"/><path class="cls-5" d="M375.21,1318.21h-7.35l10.27-30.77H387l10.28,30.77h-7.54l-1.87-6.3H377.08Zm3.88-13.06-.32,1.1h7.39l-.32-1.1q-1.32-4.47-2.17-7.62c-.56-2.1-.9-3.45-1-4.06l-.18-.92Q382.1,1295.07,379.09,1305.15Z"/><path class="cls-5" d="M57,1342.33H53.83v7.48H51.39V1329.5h5.33a8,8,0,0,1,5.56,1.82,6,6,0,0,1,2,4.72,5.78,5.78,0,0,1-2,4.5A7.78,7.78,0,0,1,57,1342.33Zm-.21-10.75H53.83v8.67H57a5.09,5.09,0,0,0,3.59-1.19,3.92,3.92,0,0,0,1.29-3,4.19,4.19,0,0,0-1.32-3.26A5.43,5.43,0,0,0,56.75,1331.58Z"/><path class="cls-5" d="M68.41,1349.81H65.79l7.08-20.31h3.38l7,20.31H80.59l-1.78-5.34H70.22Zm2.9-8.56-.4,1.14h7.21l-.4-1.17-3.16-9.77Q74.2,1332.76,71.31,1341.25Z"/><path class="cls-5" d="M91.19,1341.79H88.27v8H85.83V1329.5h5.09a7.74,7.74,0,0,1,5.35,1.65,5.91,5.91,0,0,1,1.82,4.58,6.34,6.34,0,0,1-1.11,3.59,5.62,5.62,0,0,1-3,2.08l5.34,8.41H96.4l-5-8Zm-.12-10.18h-2.8v8.1h3.07a4.24,4.24,0,0,0,3.18-1.13,4,4,0,0,0,1.1-2.91Q95.62,1331.61,91.07,1331.61Z"/><path class="cls-5" d="M102.94,1349.81h-2.62l7.08-20.31h3.38l7,20.31h-2.62l-1.78-5.34h-8.59Zm2.9-8.56-.4,1.14h7.21l-.4-1.17-3.16-9.77Q108.73,1332.76,105.84,1341.25Z"/><path class="cls-5" d="M145.89,1349.81h-6.15V1329.5h6a10.19,10.19,0,0,1,7.37,2.78,9.6,9.6,0,0,1,2.87,7.22,10.55,10.55,0,0,1-2.66,7.35A9.55,9.55,0,0,1,145.89,1349.81Zm-.15-18.14h-3.53v16h3.65a6.94,6.94,0,0,0,5.69-2.34,8.83,8.83,0,0,0,1.93-5.83,7.77,7.77,0,0,0-2.15-5.57A7.37,7.37,0,0,0,145.74,1331.67Z"/><path class="cls-5" d="M161.53,1349.81h-2.44V1329.5h2.44Z"/><path class="cls-5" d="M167,1349.81h-2.62l7.08-20.31h3.38l7,20.31h-2.63l-1.77-5.34h-8.59Zm2.89-8.56-.39,1.14h7.2l-.39-1.17-3.16-9.77Q172.74,1332.76,169.84,1341.25Z"/><path class="cls-5" d="M200.22,1348.21a10.24,10.24,0,0,1-6.3,1.84,10.36,10.36,0,0,1-7.56-2.79,10.18,10.18,0,0,1-2.87-7.64,10.4,10.4,0,0,1,2.85-7.55,9.6,9.6,0,0,1,7.19-2.94,11.54,11.54,0,0,1,5.93,1.39v2.62a10.18,10.18,0,0,0-5.72-1.63,7.34,7.34,0,0,0-5.54,2.22,9.28,9.28,0,0,0,0,11.81,7.77,7.77,0,0,0,5.82,2.16,8.94,8.94,0,0,0,3.8-.82v-6.32h-4.46v-2.15h6.9v9.71h0Z"/><path class="cls-5" d="M206.24,1349.81H203.8V1329.5h3.08l5.09,8.55,5.15,8.8q-.12-2.92-.12-8.77v-8.58h2.44v20.31h-3.07l-5.09-8.5c-1-1.71-2-3.3-2.84-4.78s-1.47-2.53-1.83-3.18l-.52-.93q.15,3.13.15,8.83Z"/><path class="cls-5" d="M240.69,1339.56a11.3,11.3,0,0,1-2.46,7.64,9.13,9.13,0,0,1-13.27,0,13,13,0,0,1-.05-15.24,9.29,9.29,0,0,1,13.35,0A11.32,11.32,0,0,1,240.69,1339.56Zm-15.67,0a9.16,9.16,0,0,0,1.79,6,5.87,5.87,0,0,0,4.78,2.2,5.77,5.77,0,0,0,4.8-2.17,11.41,11.41,0,0,0,0-12,6.41,6.41,0,0,0-9.63,0A9.35,9.35,0,0,0,225,1339.56Z"/><path class="cls-5" d="M255.42,1344.41a5,5,0,0,1-1.84,4.14,7.32,7.32,0,0,1-4.73,1.47,10.63,10.63,0,0,1-5.42-1.3v-2.62a8.66,8.66,0,0,0,5.36,1.66,4.68,4.68,0,0,0,3-.85,2.88,2.88,0,0,0,1.09-2.44,2.5,2.5,0,0,0-1.1-2.15,10.09,10.09,0,0,0-1.12-.73c-.35-.19-.82-.42-1.43-.7l-.54-.24c-.86-.39-1.52-.7-2-.94a11.37,11.37,0,0,1-1.6-1.07,4.33,4.33,0,0,1-1.34-1.64,5.25,5.25,0,0,1-.42-2.17,4.84,4.84,0,0,1,1.85-4,7.27,7.27,0,0,1,4.66-1.46,9.83,9.83,0,0,1,4.46.93v2.56a7.9,7.9,0,0,0-4.4-1.2,4.62,4.62,0,0,0-2.93.85,2.76,2.76,0,0,0-1.08,2.25,2.84,2.84,0,0,0,.28,1.29,2.89,2.89,0,0,0,1,1.07,10.47,10.47,0,0,0,1.24.76c.34.17.87.41,1.6.74l1.56.7a13,13,0,0,1,1.4.82,5.57,5.57,0,0,1,1.3,1.08,5.29,5.29,0,0,1,.78,1.39A4.91,4.91,0,0,1,255.42,1344.41Z"/><path class="cls-5" d="M270.34,1331.64h-5.49v18.17h-2.44v-18.17h-5.48v-2.14h13.41Z"/><path class="cls-5" d="M275.1,1349.81h-2.44V1329.5h2.44Z"/><path class="cls-5" d="M293.72,1348.78a9.06,9.06,0,0,1-5.12,1.27,9.77,9.77,0,0,1-10.31-10.49,9.89,9.89,0,0,1,10.22-10.33,10.78,10.78,0,0,1,5.15,1.08v2.5a13.2,13.2,0,0,0-2.38-1,10.42,10.42,0,0,0-2.77-.31,7.33,7.33,0,0,0-5.47,2.24,7.92,7.92,0,0,0-2.19,5.81,8.19,8.19,0,0,0,2.17,6,7.71,7.71,0,0,0,5.76,2.23,8.05,8.05,0,0,0,4.94-1.54Z"/><path class="cls-5" d="M297.91,1349.81h-2.63l7.09-20.31h3.37l7,20.31h-2.62l-1.78-5.34h-8.59Zm2.89-8.56-.39,1.14h7.2l-.39-1.17-3.17-9.77Q303.69,1332.76,300.8,1341.25Z"/><path class="cls-5" d="M320.69,1341.79h-2.93v8h-2.44V1329.5h5.09a7.7,7.7,0,0,1,5.35,1.65,5.89,5.89,0,0,1,1.83,4.58,6.35,6.35,0,0,1-1.12,3.59,5.6,5.6,0,0,1-3,2.08l5.33,8.41H325.9l-5-8Zm-.12-10.18h-2.81v8.1h3.08a4.27,4.27,0,0,0,3.18-1.13,4,4,0,0,0,1.1-2.91Q325.12,1331.61,320.57,1331.61Z"/><path class="cls-5" d="M363.38,1349.81H352.29V1329.5h2.44v18.11h8.65Z"/><path class="cls-5" d="M367.27,1349.81h-2.63l7.09-20.31h3.37l7,20.31h-2.62l-1.78-5.34h-8.59Zm2.89-8.56-.39,1.14H377l-.39-1.17-3.17-9.77Q373.05,1332.76,370.16,1341.25Z"/><path class="cls-5" d="M396.43,1344.41a5,5,0,0,1-1.83,4.14,7.37,7.37,0,0,1-4.74,1.47,10.69,10.69,0,0,1-5.42-1.3v-2.62a8.68,8.68,0,0,0,5.36,1.66,4.72,4.72,0,0,0,3-.85,2.9,2.9,0,0,0,1.08-2.44,2.44,2.44,0,0,0-1.1-2.15,11,11,0,0,0-1.11-.73c-.35-.19-.83-.42-1.43-.7l-.55-.24c-.86-.39-1.52-.7-2-.94a12.65,12.65,0,0,1-1.6-1.07,4.33,4.33,0,0,1-1.34-1.64,5.25,5.25,0,0,1-.42-2.17,4.87,4.87,0,0,1,1.85-4,7.27,7.27,0,0,1,4.66-1.46,9.8,9.8,0,0,1,4.46.93v2.56a7.88,7.88,0,0,0-4.4-1.2,4.57,4.57,0,0,0-2.92.85,2.74,2.74,0,0,0-1.09,2.25,2.85,2.85,0,0,0,.29,1.29,2.89,2.89,0,0,0,1,1.07,9.71,9.71,0,0,0,1.23.76c.34.17.88.41,1.6.74l1.57.7a13,13,0,0,1,1.4.82,5.71,5.71,0,0,1,1.29,1.08,5.3,5.3,0,0,1,.79,1.39A4.91,4.91,0,0,1,396.43,1344.41Z"/><path class="cls-5" d="M56.75,1386H49.33v-20.31h6.12a8.07,8.07,0,0,1,5,1.45,4.67,4.67,0,0,1,1.88,3.89,4.83,4.83,0,0,1-1,3,4.2,4.2,0,0,1-2.51,1.61,5,5,0,0,1,2.87,1.52,4.67,4.67,0,0,1,1.19,3.39,5.07,5.07,0,0,1-1.61,3.93A6.43,6.43,0,0,1,56.75,1386Zm-1.3-18.23H51.77v6.93H55a5.43,5.43,0,0,0,3.62-1,3.36,3.36,0,0,0,1.17-2.65,2.93,2.93,0,0,0-1.1-2.34A5,5,0,0,0,55.45,1367.73Zm.48,9H51.77v7.15h4.62a4.43,4.43,0,0,0,3-.89,3.23,3.23,0,0,0,1-2.61,3.28,3.28,0,0,0-1.16-2.68A5,5,0,0,0,55.93,1376.74Z"/><path class="cls-5" d="M71.15,1378H68.23v8H65.79v-20.31h5.09a7.74,7.74,0,0,1,5.35,1.66,5.9,5.9,0,0,1,1.82,4.58,6.37,6.37,0,0,1-1.11,3.59,5.62,5.62,0,0,1-3,2.08l5.34,8.4H76.36l-5-8ZM71,1367.76h-2.8v8.11H71.3a4.24,4.24,0,0,0,3.18-1.13,4,4,0,0,0,1.1-2.91Q75.58,1367.77,71,1367.76Z"/><path class="cls-5" d="M92.88,1386H81.55v-20.31H92.72v2.14H84v7H91.7v2.13H84v6.94h8.89Z"/><path class="cls-5" d="M110.44,1384.94a9,9,0,0,1-5.12,1.27,10.15,10.15,0,0,1-7.44-2.82,10.27,10.27,0,0,1-2.86-7.67,9.89,9.89,0,0,1,10.21-10.34,10.72,10.72,0,0,1,5.15,1.09v2.5a12.64,12.64,0,0,0-2.38-1,9.93,9.93,0,0,0-2.77-.31,7.37,7.37,0,0,0-5.47,2.23,8,8,0,0,0-2.18,5.82,8.19,8.19,0,0,0,2.17,6,7.67,7.67,0,0,0,5.75,2.23,8,8,0,0,0,4.94-1.54Z"/><path class="cls-5" d="M128,1386h-2.44v-9.19h-9.85V1386h-2.44v-20.31h2.44v8.92h9.85v-8.92H128Z"/><path class="cls-5" d="M133.25,1386h-2.62l7.08-20.31h3.38l7,20.31h-2.62l-1.78-5.33h-8.59Zm2.9-8.55-.4,1.14H143l-.4-1.17-3.16-9.77Q139,1368.92,136.15,1377.41Z"/><path class="cls-5" d="M162.42,1380.57a5,5,0,0,1-1.84,4.14,7.32,7.32,0,0,1-4.73,1.47,10.63,10.63,0,0,1-5.42-1.3v-2.62a8.66,8.66,0,0,0,5.36,1.66,4.74,4.74,0,0,0,3-.85,2.88,2.88,0,0,0,1.09-2.44,2.5,2.5,0,0,0-1.1-2.15,8.83,8.83,0,0,0-1.12-.73c-.35-.19-.82-.42-1.43-.7a5,5,0,0,0-.54-.25c-.86-.38-1.52-.69-2-.93a11.37,11.37,0,0,1-1.6-1.07,4.33,4.33,0,0,1-1.34-1.64,5.25,5.25,0,0,1-.42-2.17,4.84,4.84,0,0,1,1.85-4,7.28,7.28,0,0,1,4.66-1.47,9.83,9.83,0,0,1,4.46.94V1369a7.9,7.9,0,0,0-4.4-1.21,4.62,4.62,0,0,0-2.93.86,2.93,2.93,0,0,0-.79,3.54,2.86,2.86,0,0,0,1,1.07,10.47,10.47,0,0,0,1.24.76c.34.17.87.41,1.6.74l1.56.7a13,13,0,0,1,1.41.82,5.71,5.71,0,0,1,1.29,1.08,5.13,5.13,0,0,1,.78,1.39A4.91,4.91,0,0,1,162.42,1380.57Z"/><path class="cls-5" d="M183.63,1386H172.3v-20.31h11.18v2.14h-8.74v7h7.72v2.13h-7.72v6.94h8.89Z"/><path class="cls-5" d="M189.09,1386h-2.44v-20.31h3.07l5.09,8.56L200,1383q-.12-2.92-.12-8.77v-8.59h2.44V1386h-3.08l-5.09-8.49c-1-1.71-2-3.3-2.83-4.78s-1.48-2.53-1.84-3.18l-.51-.93q.15,3.14.15,8.83Z"/><path class="cls-5" d="M223.86,1386H212.77v-20.31h2.44v18.11h8.65Z"/><path class="cls-5" d="M243.75,1375.72a11.3,11.3,0,0,1-2.46,7.64,9.13,9.13,0,0,1-13.27,0,13,13,0,0,1-.05-15.24,9.29,9.29,0,0,1,13.35,0A11.32,11.32,0,0,1,243.75,1375.72Zm-15.67,0a9.22,9.22,0,0,0,1.79,6,5.88,5.88,0,0,0,4.78,2.2,5.75,5.75,0,0,0,4.8-2.17,11.35,11.35,0,0,0,0-12,6.41,6.41,0,0,0-9.63,0A9.41,9.41,0,0,0,228.08,1375.72Z"/><path class="cls-5" d="M258.48,1380.57a5,5,0,0,1-1.84,4.14,7.32,7.32,0,0,1-4.73,1.47,10.66,10.66,0,0,1-5.42-1.3v-2.62a8.68,8.68,0,0,0,5.36,1.66,4.79,4.79,0,0,0,3-.85,2.9,2.9,0,0,0,1.08-2.44,2.5,2.5,0,0,0-1.1-2.15,9.54,9.54,0,0,0-1.11-.73c-.36-.19-.83-.42-1.43-.7-.13-.07-.31-.15-.55-.25-.86-.38-1.52-.69-2-.93a12,12,0,0,1-1.6-1.07,4.33,4.33,0,0,1-1.34-1.64,5.25,5.25,0,0,1-.42-2.17,4.87,4.87,0,0,1,1.85-4,7.28,7.28,0,0,1,4.66-1.47,9.8,9.8,0,0,1,4.46.94V1369a7.9,7.9,0,0,0-4.4-1.21,4.62,4.62,0,0,0-2.93.86,2.74,2.74,0,0,0-1.08,2.25,2.85,2.85,0,0,0,.29,1.29,2.81,2.81,0,0,0,1,1.07,9.71,9.71,0,0,0,1.23.76c.34.17.88.41,1.6.74l1.57.7a14,14,0,0,1,1.4.82,5.71,5.71,0,0,1,1.29,1.08,5.42,5.42,0,0,1,.79,1.39A4.91,4.91,0,0,1,258.48,1380.57Z"/><path class="cls-5" d="M282.92,1384.94a9.06,9.06,0,0,1-5.12,1.27,10.16,10.16,0,0,1-7.45-2.82,10.31,10.31,0,0,1-2.86-7.67,9.91,9.91,0,0,1,10.22-10.34,10.75,10.75,0,0,1,5.15,1.09v2.5a13.2,13.2,0,0,0-2.38-1,10,10,0,0,0-2.77-.31,7.36,7.36,0,0,0-5.47,2.23,8,8,0,0,0-2.19,5.82,8.23,8.23,0,0,0,2.17,6,7.71,7.71,0,0,0,5.76,2.23,8,8,0,0,0,4.94-1.54Z"/><path class="cls-5" d="M300.58,1378.25a8.16,8.16,0,0,1-2,5.94,7.35,7.35,0,0,1-5.5,2,7.27,7.27,0,0,1-5.42-2,7.79,7.79,0,0,1-2-5.74v-12.84h2.44v12.81a5.6,5.6,0,0,0,1.34,4.13,4.93,4.93,0,0,0,3.6,1.33c3.36,0,5-1.87,5-5.61v-12.66h2.45Z"/><path class="cls-5" d="M307.05,1386h-2.44v-20.31h2.44Z"/><path class="cls-5" d="M317.27,1386h-6.15v-20.31h6a10.16,10.16,0,0,1,7.37,2.79,9.64,9.64,0,0,1,2.87,7.22,10.59,10.59,0,0,1-2.66,7.35A9.54,9.54,0,0,1,317.27,1386Zm-.15-18.14h-3.53v16h3.65a6.94,6.94,0,0,0,5.69-2.34,8.83,8.83,0,0,0,1.93-5.83,7.81,7.81,0,0,0-2.15-5.58A7.41,7.41,0,0,0,317.12,1367.82Z"/><path class="cls-5" d="M331.64,1386H329l7.08-20.31h3.38l7,20.31h-2.63l-1.77-5.33h-8.59Zm2.89-8.55-.39,1.14h7.2l-.39-1.17-3.16-9.77Q337.43,1368.92,334.53,1377.41Z"/><path class="cls-5" d="M355.2,1386h-6.14v-20.31h6a10.14,10.14,0,0,1,7.37,2.79,9.61,9.61,0,0,1,2.88,7.22,10.56,10.56,0,0,1-2.67,7.35A9.53,9.53,0,0,1,355.2,1386Zm-.15-18.14h-3.52v16h3.64a7,7,0,0,0,5.7-2.34,8.89,8.89,0,0,0,1.93-5.83,7.78,7.78,0,0,0-2.16-5.58A7.39,7.39,0,0,0,355.05,1367.82Z"/><path class="cls-5" d="M385.58,1375.72a11.3,11.3,0,0,1-2.46,7.64,9.13,9.13,0,0,1-13.27,0,13,13,0,0,1-.05-15.24,9.29,9.29,0,0,1,13.35,0A11.32,11.32,0,0,1,385.58,1375.72Zm-15.67,0a9.22,9.22,0,0,0,1.79,6,5.88,5.88,0,0,0,4.78,2.2,5.75,5.75,0,0,0,4.8-2.17,11.35,11.35,0,0,0,0-12,6.41,6.41,0,0,0-9.63,0A9.41,9.41,0,0,0,369.91,1375.72Z"/><path class="cls-5" d="M400.31,1380.57a5,5,0,0,1-1.84,4.14,7.32,7.32,0,0,1-4.73,1.47,10.66,10.66,0,0,1-5.42-1.3v-2.62a8.68,8.68,0,0,0,5.36,1.66,4.79,4.79,0,0,0,3-.85,2.9,2.9,0,0,0,1.08-2.44,2.5,2.5,0,0,0-1.1-2.15,9.54,9.54,0,0,0-1.11-.73c-.36-.19-.83-.42-1.44-.7a5,5,0,0,0-.54-.25c-.86-.38-1.52-.69-2-.93a12,12,0,0,1-1.6-1.07,4.33,4.33,0,0,1-1.34-1.64,5.25,5.25,0,0,1-.42-2.17,4.87,4.87,0,0,1,1.85-4,7.28,7.28,0,0,1,4.66-1.47,9.83,9.83,0,0,1,4.46.94V1369a7.9,7.9,0,0,0-4.4-1.21,4.62,4.62,0,0,0-2.93.86,2.93,2.93,0,0,0-.79,3.54,2.81,2.81,0,0,0,1,1.07,9.71,9.71,0,0,0,1.23.76c.34.17.87.41,1.6.74l1.56.7a13,13,0,0,1,1.41.82,5.71,5.71,0,0,1,1.29,1.08,5.13,5.13,0,0,1,.78,1.39A4.72,4.72,0,0,1,400.31,1380.57Z"/><path class="cls-5" d="M62.63,1422.12H51.3v-20.31H62.48V1404H53.74v7h7.72v2.14H53.74V1420h8.89Z"/><path class="cls-5" d="M68.08,1422.12H65.64v-20.31h3.08l5.09,8.56,5.15,8.8q-.12-2.93-.12-8.77v-8.59h2.44v20.31H78.21l-5.09-8.49c-1-1.71-2-3.3-2.84-4.78s-1.47-2.54-1.83-3.18l-.52-.93q.15,3.13.15,8.83Z"/><path class="cls-5" d="M99.48,1422.12H97l1.47-20.31h3.11l2.68,7.42,3.25,9.46q1.76-4.95,3.44-9.46l2.8-7.42h3.1l1.78,20.31h-2.44l-.69-8-.72-9q-1.6,4.45-3.29,9l-2.83,7.56h-2.32l-2.68-7.56-3.08-8.83c0,.78-.19,3.73-.57,8.83Z"/><path class="cls-5" d="M137.14,1414.41c0,2.61-.65,4.59-2,5.94a7.36,7.36,0,0,1-5.5,2,7.26,7.26,0,0,1-5.42-2,7.79,7.79,0,0,1-2-5.74v-12.84h2.44v12.81a5.56,5.56,0,0,0,1.34,4.13,4.9,4.9,0,0,0,3.6,1.32c3.35,0,5-1.86,5-5.6v-12.66h2.44Z"/><path class="cls-5" d="M143.44,1422.12H141v-20.31h3.07l5.1,8.56,5.15,8.8q-.12-2.93-.12-8.77v-8.59h2.44v20.31h-3.08l-5.09-8.49c-1-1.71-2-3.3-2.83-4.78s-1.48-2.54-1.84-3.18l-.51-.93q.15,3.13.15,8.83Z"/><path class="cls-5" d="M163.15,1422.12h-2.44v-20.31h2.44Z"/><path class="cls-5" d="M181.77,1421.1a9.06,9.06,0,0,1-5.12,1.26,10.15,10.15,0,0,1-7.45-2.81,10.27,10.27,0,0,1-2.86-7.67,9.91,9.91,0,0,1,10.22-10.34,10.66,10.66,0,0,1,5.15,1.09v2.5a14.1,14.1,0,0,0-2.38-1,10.48,10.48,0,0,0-2.77-.3,7.36,7.36,0,0,0-5.47,2.23,8,8,0,0,0-2.19,5.82,8.15,8.15,0,0,0,2.17,6,7.67,7.67,0,0,0,5.76,2.23,8,8,0,0,0,4.94-1.53Z"/><path class="cls-5" d="M187.22,1422.12h-2.44v-20.31h2.44Z"/><path class="cls-5" d="M196.86,1414.65h-3.13v7.47h-2.44v-20.31h5.33a8,8,0,0,1,5.56,1.83,6,6,0,0,1,2,4.71,5.8,5.8,0,0,1-2,4.51A7.78,7.78,0,0,1,196.86,1414.65Zm-.21-10.76h-2.92v8.68h3.13a5.07,5.07,0,0,0,3.59-1.19,3.93,3.93,0,0,0,1.29-3,4.18,4.18,0,0,0-1.32-3.25A5.44,5.44,0,0,0,196.65,1403.89Z"/><path class="cls-5" d="M209.58,1422.12h-2.44v-20.31h2.44Z"/><path class="cls-5" d="M231,1411.88a11.34,11.34,0,0,1-2.45,7.64,9.16,9.16,0,0,1-13.28,0,12.95,12.95,0,0,1,0-15.24,9.29,9.29,0,0,1,13.35,0A11.35,11.35,0,0,1,231,1411.88Zm-15.67,0a9.12,9.12,0,0,0,1.8,6,5.82,5.82,0,0,0,4.77,2.2,5.76,5.76,0,0,0,4.81-2.17,11.36,11.36,0,0,0,0-12,6.4,6.4,0,0,0-9.62,0A9.34,9.34,0,0,0,215.33,1411.88Z"/><path class="cls-5" d="M245.74,1416.73a5,5,0,0,1-1.84,4.14,7.34,7.34,0,0,1-4.73,1.46,10.63,10.63,0,0,1-5.42-1.29v-2.62a8.66,8.66,0,0,0,5.36,1.65,4.75,4.75,0,0,0,3-.84,2.91,2.91,0,0,0,1.09-2.44,2.5,2.5,0,0,0-1.1-2.15,8.46,8.46,0,0,0-1.12-.73c-.35-.19-.83-.42-1.43-.71L239,1413c-.87-.38-1.52-.69-2-.93a12,12,0,0,1-1.59-1.07,4.24,4.24,0,0,1-1.34-1.64,5.28,5.28,0,0,1-.43-2.17,4.88,4.88,0,0,1,1.86-4.06,7.28,7.28,0,0,1,4.65-1.46,9.77,9.77,0,0,1,4.46.94v2.56a7.86,7.86,0,0,0-4.4-1.21,4.59,4.59,0,0,0-2.92.86,2.74,2.74,0,0,0-1.08,2.25,2.84,2.84,0,0,0,.28,1.29,3,3,0,0,0,1,1.07,11,11,0,0,0,1.24.76c.34.17.87.41,1.59.73l1.57.71a11.5,11.5,0,0,1,1.4.82,5.57,5.57,0,0,1,1.3,1.08,5.13,5.13,0,0,1,.78,1.39A4.91,4.91,0,0,1,245.74,1416.73Z"/><path class="cls-5" d="M264.51,1422.12h-6.15v-20.31h6a10.12,10.12,0,0,1,7.36,2.79,9.61,9.61,0,0,1,2.88,7.22,10.56,10.56,0,0,1-2.67,7.35A9.51,9.51,0,0,1,264.51,1422.12Zm-.15-18.14h-3.53v16h3.65a6.93,6.93,0,0,0,5.69-2.33,8.83,8.83,0,0,0,1.93-5.83,7.81,7.81,0,0,0-2.15-5.58A7.41,7.41,0,0,0,264.36,1404Z"/><path class="cls-5" d="M288.85,1422.12H277.52v-20.31H288.7V1404H280v7h7.72v2.14H280V1420h8.89Z"/><path class="cls-5" d="M306.18,1422.12h-2.45l1.48-20.31h3.1l2.69,7.42,3.25,9.46q1.75-4.95,3.44-9.46l2.8-7.42h3.1l1.78,20.31h-2.44l-.69-8-.73-9q-1.59,4.45-3.28,9l-2.83,7.56h-2.32l-2.69-7.56-3.07-8.83c0,.78-.19,3.73-.57,8.83Z"/><path class="cls-5" d="M340.35,1422.12H329v-20.31h11.17V1404h-8.73v7h7.71v2.14h-7.71V1420h8.89Zm-4.22-21.9h-2.08l3-4.7h2.83Z"/><path class="cls-5" d="M345.11,1422.12h-2.9l6.54-10.24-6.18-10.07h2.87l4.67,7.87,4.67-7.87h2.89l-6.15,10.07,6.81,10.24h-2.86l-5.3-8.16Z"/><path class="cls-5" d="M363.7,1422.12h-2.44v-20.31h2.44Z"/><path class="cls-5" d="M382.32,1421.1a9.06,9.06,0,0,1-5.12,1.26,10.15,10.15,0,0,1-7.45-2.81,10.27,10.27,0,0,1-2.86-7.67,9.91,9.91,0,0,1,10.22-10.34,10.66,10.66,0,0,1,5.15,1.09v2.5a14.1,14.1,0,0,0-2.38-1,10.48,10.48,0,0,0-2.77-.3,7.36,7.36,0,0,0-5.47,2.23,8,8,0,0,0-2.19,5.82,8.15,8.15,0,0,0,2.17,6,7.67,7.67,0,0,0,5.76,2.23,8,8,0,0,0,4.94-1.53Z"/><path class="cls-5" d="M402.51,1411.88a11.3,11.3,0,0,1-2.46,7.64,9.15,9.15,0,0,1-13.27,0,13,13,0,0,1,0-15.24,9.29,9.29,0,0,1,13.35,0A11.3,11.3,0,0,1,402.51,1411.88Zm-15.67,0a9.17,9.17,0,0,0,1.79,6,5.85,5.85,0,0,0,4.78,2.2,5.73,5.73,0,0,0,4.8-2.17,11.34,11.34,0,0,0,0-12,6.41,6.41,0,0,0-9.63,0A9.39,9.39,0,0,0,386.84,1411.88Z"/><g class="cls-3"><circle class="cls-4" cx="137.94" cy="995.66" r="93"/><circle class="cls-4" cx="385.37" cy="946.79" r="93"/><circle class="cls-4" cx="133.83" cy="535.46" r="93"/><rect class="cls-4" x="254.13" y="590.51" width="200.71" height="204.2" transform="translate(397.04 -84.28) rotate(30.24)"/><polygon class="cls-4" points="0.42 830.34 6.79 737.42 13.16 644.51 90.44 696.48 167.72 748.46 84.07 789.4 0.42 830.34"/><polygon class="cls-4" points="301.82 1231.14 308.19 1138.23 314.56 1045.31 391.84 1097.29 469.12 1149.26 385.47 1190.2 301.82 1231.14"/></g><g class="cls-3"><circle class="cls-4" cx="125.94" cy="278.66" r="93"/><circle class="cls-4" cx="373.37" cy="229.79" r="93"/><rect class="cls-4" x="242.13" y="-126.49" width="200.71" height="204.2" transform="translate(34.32 -175.8) rotate(30.24)"/><polygon class="cls-4" points="-11.58 113.34 -5.21 20.43 1.16 -72.49 78.44 -20.52 155.72 31.45 72.07 72.4 -11.58 113.34"/><polygon class="cls-4" points="289.82 514.14 296.19 421.23 302.56 328.31 379.84 380.29 457.12 432.26 373.47 473.2 289.82 514.14"/></g><ellipse class="cls-6" cx="183.78" cy="1004.47" rx="8.97" ry="13.02" transform="translate(-792.34 704.59) rotate(-62.55)"/><path class="cls-7" d="M279.47,1068.86,265.66,1176l-40.57-2.55,22-120.7,47.89-.26,35.38,94.93-33.23,20.93s-18.55-39.3-21.14-46.45l-2.59-7.14"/><polygon class="cls-8" points="336.56 1165.84 325.34 1151.04 307.65 1162.27 302.47 1196.97 336.56 1165.84"/><polygon class="cls-8" points="260.48 1175.03 259.62 1198 216.46 1197.49 238.04 1174.01 260.48 1175.03"/><path class="cls-9" d="M279.81,1005.23s3.8-4.58-10.64,11.44a44.13,44.13,0,0,1-19.86,12.71c-.82.27-1.65.51-2.47.73-8.78,2.37-17.54,2.54-24.8,3.35-13.68,1.53-38-16-38-16l9.88-19.08s3,.77,23.57,6.11,19-.77,36.48-24.42,32.69-13.73,32.69-13.73,9.88,33.06,8.36,78.07v8.14l-47.89-.76s.51-21.62.25-20.6"/><ellipse class="cls-6" cx="276.51" cy="947.5" rx="20.52" ry="20.6"/><ellipse class="cls-10" cx="282.86" cy="942.82" rx="12.69" ry="17.78" transform="translate(-507.57 356.18) rotate(-36.72)"/><ellipse class="cls-11" cx="151.32" cy="960.12" rx="42.03" ry="42.19"/><rect class="cls-12" x="61.48" y="736.21" width="57.63" height="113.34"/><polygon class="cls-8" points="62.44 875 119.11 875 94.14 850.99 63.4 850.03 62.44 875"/><ellipse class="cls-13" cx="159.45" cy="672.81" rx="15.37" ry="10.57" transform="translate(-493.78 446.12) rotate(-57.53)"/><path class="cls-14" d="M77.08,715.07S101,741,127.69,744.85,170,686.26,170,686.26l-27.61-14.41-19.32,19.21L97.33,661.29s-37.73,0-36.81,40.34,1.8,41.42,1.8,41.42l57.73-.48"/><circle class="cls-13" cx="81.17" cy="644.48" r="23.05"/><circle class="cls-10" cx="57.64" cy="628.63" r="14.41"/><ellipse class="cls-10" cx="70.6" cy="637.27" rx="16.81" ry="12.01" transform="translate(-480.66 309.84) rotate(-52.97)"/><polygon class="cls-15" points="220.16 657.85 173.28 658.43 126.41 659.01 149.35 618.13 172.28 577.25 196.22 617.55 220.16 657.85"/><path class="cls-16" d="M289.46,91.11l-17.85-8s-64.28-10.52-67.26-11.22c-15.13-3.57-28.55,8.85-5.8,18.65s68.27,17.64,74.17,16.71S288.58,100.21,289.46,91.11Z"/><path class="cls-16" d="M259.67,68.38S219.61,56,212.14,60.22c-3.95,2.25-7.79,9.87-.45,11.9S264.55,82,264.55,82l7.36-5.32Z"/><ellipse class="cls-16" cx="276.39" cy="63.96" rx="19.09" ry="19.59" transform="translate(-6.28 88.07) rotate(-17.9)"/><path class="cls-17" d="M274.82,144.84l15.25,110.73,41.36-10.91-9.26-55.58-.16-.18L315.17,147l7,42.08,4.44,5.18c4.6,5.38,34.24,33.55,34.24,33.55l27.42-29-62-67.7Z"/><path class="cls-17" d="M315.17,147,322,188.9l.16.18Z"/><path class="cls-18" d="M322.17,189.08l-.16-.18"/><path class="cls-18" d="M322.17,189.08l9.26,55.58-41.36,10.91L274.82,144.84l51.46-13.69,62,67.7-27.42,29s-29.64-28.17-34.24-33.55Z"/><line class="cls-18" x1="315.17" y1="147" x2="322.17" y2="189.08"/><polygon class="cls-8" points="400.46 211.82 385.06 202.59 370.48 218.08 375.04 249.93 400.46 211.82"/><polygon class="cls-8" points="327.36 245.36 331.54 265.7 288.16 279.23 303.18 251.83 327.36 245.36"/><path class="cls-12" d="M330.31,131.81S313,74.58,283.75,81.56s-11.34,66.88-11.34,66.88Z"/><polygon class="cls-19" points="218.94 180.92 169.76 181.53 120.59 182.14 144.65 139.25 168.71 96.36 193.82 138.64 218.94 180.92"/><ellipse class="cls-20" cx="289.14" cy="343.8" rx="63.19" ry="60.41"/><ellipse class="cls-10" cx="281.61" cy="59.78" rx="12.53" ry="17.38" transform="translate(17.65 174.7) rotate(-35.51)"/><circle class="cls-10" cx="295.56" cy="45.08" r="14.08"/><ellipse class="cls-13" cx="179.23" cy="260.4" rx="12.99" ry="8.68" transform="translate(-91.76 97.63) rotate(-24.47)"/><path class="cls-21" d="M82.55,261.13s-3.83-4.39,10.71,11a44.81,44.81,0,0,0,20,12.18c.83.26,1.66.49,2.49.7,8.84,2.28,17.66,2.44,25,3.21,13.78,1.47,38.27-15.36,38.27-15.36L169,254.55s-3.06.73-23.73,5.85-19.13-.73-36.73-23.41-32.91-13.17-32.91-13.17-10,31.7-8.41,74.87v7.8l48.21-.73S115,285,115.2,286"/><ellipse class="cls-13" cx="85.87" cy="205.78" rx="20.66" ry="19.75"/><ellipse class="cls-10" cx="79.48" cy="201.29" rx="17.38" ry="12.53" transform="translate(-124.61 129.3) rotate(-49.03)"/><rect class="cls-12" x="68.52" y="306.39" width="44.94" height="110.74"/><polygon class="cls-8" points="69.36 442 119.17 442 97.22 418.54 70.21 417.6 69.36 442"/><path class="cls-16" d="M331.61,590.43l-15.63-14s-62.3-32-65.12-33.72c-14.3-8.65-32.13-.38-12.1,17.17s64,40.62,70.37,41.63S327.7,599.46,331.61,590.43Z"/><path class="cls-16" d="M308.65,557.34s-36.9-26-45.94-24.07c-4.79,1-11.24,7.52-4.4,12s50.82,27.58,50.82,27.58l9.29-3Z"/><ellipse class="cls-16" cx="327.22" cy="558.34" rx="20.52" ry="21.06"/><path class="cls-10" d="M331.3,537.92c7.44-2.23,15.81,4.15,18.69,14.25a25.56,25.56,0,0,1,.86,4.71c.26,0,.53,0,.8,0a18.7,18.7,0,0,1,18.28,15.78,24.53,24.53,0,0,1,3.22-.24c13.5,0,24.44,11.23,24.44,25.08s-10.94,25.07-24.44,25.07-24.43-11.23-24.43-25.07a24.93,24.93,0,0,1,.15-2.75,18.9,18.9,0,0,1-15.79-18.82,19.12,19.12,0,0,1,.15-2.28c-4.51-2.23-8.43-7.07-10.22-13.36C320.14,550.15,323.85,540.15,331.3,537.92Z"/><path class="cls-22" d="M298.87,640.58l-21,118.35,45.93,2.51,8.9-59.93-.1-.24,6.85-45.14-6.75,45.38c.21.49.85,2,2.83,6.77,2.93,7,23.94,45.64,23.94,45.64l37.64-20.56-41.05-89.77Z"/><path class="cls-23" d="M339.44,656.13l-6.85,45.14.1.24Z"/><path class="cls-18" d="M332.69,701.51l-.1-.24"/><path class="cls-18" d="M332.69,701.51l-8.9,59.93-45.93-2.51,21-118.35,57.18,3,41.05,89.77-37.64,20.56s-21-38.62-23.94-45.64C333.54,703.54,332.9,702,332.69,701.51Z"/><line class="cls-18" x1="339.44" y1="656.13" x2="332.69" y2="701.51"/><polygon class="cls-8" points="405.28 750.65 392.58 736.11 372.54 747.14 366.68 781.25 405.28 750.65"/><polygon class="cls-8" points="319.4 760.81 316.95 783 268.08 782.5 292.52 759.43 319.4 760.81"/><path class="cls-24" d="M360,645.6s1.22-64.29-31-66.82-33.72,64.69-33.72,64.69Z"/><rect class="cls-25" x="213.56" y="449.65" width="75.54" height="75.54" transform="translate(-277.98 343.98) rotate(-47.56)"/></g></svg>